<svg width="24" height="24" viewBox="0 0 24 24" fill="none" xmlns="http://www.w3.org/2000/svg">
<path d="M10.7949 3.04492C15.0751 3.04492 18.5449 6.51471 18.5449 10.7949C18.5449 12.6647 17.8819 14.379 16.7793 15.7178L20.7363 19.6748C21.0289 19.9676 21.0289 20.4425 20.7363 20.7354C20.4435 21.0282 19.9687 21.028 19.6758 20.7354L15.7188 16.7783C14.3798 17.8814 12.6652 18.5449 10.7949 18.5449C6.51471 18.5449 3.04492 15.0751 3.04492 10.7949C3.04492 6.51471 6.51471 3.04492 10.7949 3.04492ZM10.7949 4.54492C7.34314 4.54492 4.54492 7.34314 4.54492 10.7949C4.54492 14.2467 7.34314 17.0449 10.7949 17.0449C14.2467 17.0449 17.0449 14.2467 17.0449 10.7949C17.0449 7.34314 14.2467 4.54492 10.7949 4.54492Z" fill="black"/>
</svg>
