<svg width="361" height="48" viewBox="0 0 361 48" fill="none" xmlns="http://www.w3.org/2000/svg">
<rect x="0.5" y="0.5" width="360" height="47" rx="3.5" fill="#EFF2EF"/>
<rect x="0.5" y="0.5" width="360" height="47" rx="3.5" stroke="#E1E3E1"/>
<path d="M27.4844 17.375V23.0312H29.7344V24.0625H27.4844V31.2656H26.2656V17.375H27.4844ZM23.8906 18.875C23.8906 22.8125 22.0469 26.3906 17.5156 28.625L16.8281 27.6562C20.4219 25.8672 22.375 23.1953 22.6562 19.9062H17.4688V18.875H23.8906ZM43.2188 24.3281V25.3438H30.5625V24.3281H36.2812V22.7812H32.25V17.6719H33.4688V19.2656H40.3438V17.6719H41.5625V22.7812H37.5V24.3281H43.2188ZM33.4688 21.7969H40.3438V20.2031H33.4688V21.7969ZM41.6719 26.6406V31.0781H32.1094V26.6406H41.6719ZM33.3281 27.6094V30.0781H40.4688V27.6094H33.3281Z" fill="#8E918F"/>
<g clip-path="url(#clip0_119_878)">
<path d="M330 21L336.859 27.8586C336.937 27.9367 337.063 27.9367 337.141 27.8586L344 21" stroke="#8E918F" stroke-linecap="round"/>
</g>
<defs>
<clipPath id="clip0_119_878">
<rect width="16" height="16" fill="white" transform="translate(345 16) rotate(90)"/>
</clipPath>
</defs>
</svg>
