<svg width="20" height="20" viewBox="0 0 20 20" fill="none" xmlns="http://www.w3.org/2000/svg">
<path d="M7.48658 1.66663C5.14773 1.71992 3.78164 1.94255 2.84826 2.8727C2.03135 3.68678 1.75828 4.83116 1.66699 6.66663M12.5141 1.66663C14.8529 1.71992 16.219 1.94255 17.1524 2.8727C17.9693 3.68678 18.2424 4.83116 18.3337 6.66663M12.5141 18.3333C14.8529 18.28 16.219 18.0574 17.1524 17.1272C17.9693 16.3131 18.2424 15.1688 18.3337 13.3333M7.48658 18.3333C5.14773 18.28 3.78164 18.0574 2.84826 17.1272C2.03135 16.3131 1.75828 15.1688 1.66699 13.3333" stroke="black" stroke-width="2" stroke-linecap="round" stroke-linejoin="round"/>
<path d="M12.4997 12.5L14.1663 14.1667M13.333 9.58337C13.333 7.51228 11.6541 5.83337 9.58301 5.83337C7.51192 5.83337 5.83301 7.51228 5.83301 9.58337C5.83301 11.6545 7.51192 13.3334 9.58301 13.3334C11.6541 13.3334 13.333 11.6545 13.333 9.58337Z" stroke="black" stroke-width="2" stroke-linecap="round" stroke-linejoin="round"/>
</svg>
