<svg width="80" height="27" viewBox="0 0 80 27" fill="none" xmlns="http://www.w3.org/2000/svg">
<rect x="0.5" y="0.5" width="79" height="26" rx="3.5" fill="white"/>
<rect x="0.5" y="0.5" width="79" height="26" rx="3.5" stroke="#E1E3E1"/>
<path d="M18.6553 9.26562V10.2002H16.6465C16.668 11.0381 17.436 11.7847 18.8701 12.0693L18.3975 12.9932C17.2856 12.7622 16.4961 12.2412 16.0664 11.543C15.6421 12.3057 14.8472 12.8804 13.7031 13.1221L13.1982 12.1982C14.6538 11.9136 15.4272 11.0918 15.4434 10.2002H13.4453V9.26562H15.4541V8.2666H16.6465V9.26562H18.6553ZM20.9434 8.25586V17.9453H19.7617V8.25586H20.9434ZM12.833 13.627C14.6377 13.627 17.0547 13.6162 19.1279 13.3584L19.2139 14.2178C18.376 14.3628 17.5059 14.4541 16.6572 14.5078V17.6553H15.4541V14.5723C14.5679 14.6099 13.7246 14.6152 12.9834 14.6152L12.833 13.627ZM30.9821 15.7861V16.7529H22.1091V15.7861H25.9118V13.541H27.0935V15.7861H30.9821ZM27.1257 9.54492C27.1257 11.0166 28.5974 12.4668 30.6384 12.7891L30.1228 13.7773C28.4792 13.4658 27.1364 12.5259 26.4919 11.2529C25.8474 12.5205 24.5154 13.4766 22.8825 13.7773L22.3669 12.7891C24.3972 12.4668 25.8474 11.0059 25.8581 9.54492V8.83594H27.1257V9.54492ZM32.5776 14.4326C32.1157 14.4326 31.7397 14.0566 31.7397 13.5947C31.7397 13.1436 32.1157 12.7676 32.5776 12.7676C33.018 12.7676 33.4047 13.1436 33.4047 13.5947C33.4047 14.0566 33.018 14.4326 32.5776 14.4326ZM41.8644 8.24512V11.5H43.175V12.4883H41.8644V15.8291H40.672V8.24512H41.8644ZM42.2082 16.7959V17.7627H35.4836V15.3242H36.6759V16.7959H42.2082ZM34.0871 13.8848C34.8122 13.8848 35.6554 13.8794 36.5363 13.8418V13.2295C35.4567 13.1006 34.7746 12.5688 34.7746 11.79C34.7746 10.834 35.7091 10.2754 37.1164 10.2861C38.5343 10.2754 39.4582 10.834 39.4582 11.79C39.4582 12.5635 38.7921 13.0898 37.7287 13.2295V13.7881C38.5558 13.7451 39.3883 13.6699 40.1671 13.5518L40.2638 14.3896C38.2121 14.7764 35.8918 14.7979 34.216 14.8193L34.0871 13.8848ZM39.9093 9.09375V9.96387H34.3341V9.09375H36.5363V8.21289H37.7287V9.09375H39.9093ZM37.1164 11.0918C36.3644 11.0918 35.9132 11.3389 35.924 11.79C35.9132 12.209 36.3644 12.4561 37.1164 12.4561C37.8683 12.4561 38.3195 12.209 38.3195 11.79C38.3195 11.3389 37.8683 11.0918 37.1164 11.0918ZM45.7909 8.39551V9.1582H49.9804V8.39551H51.162V11.6289H44.6093V8.39551H45.7909ZM45.7909 10.7373H49.9804V10.0283H45.7909V10.7373ZM52.3114 12.2305V13.208H48.4657V13.9277H51.205V16.2803H45.6835V16.957H51.4735V17.8701H44.5126V15.4424H50.0341V14.8086H44.5018V13.9277H47.2733V13.208H43.4598V12.2305H52.3114Z" fill="#E32727"/>
<path d="M64.4209 14.8252C64.577 14.6698 64.8303 14.6696 64.9863 14.8252C65.1423 14.9812 65.142 15.2354 64.9863 15.3916L64.8564 15.5215H66.3555L66.5234 15.5303C67.354 15.6148 68.0026 16.3161 68.0029 17.1689C68.0027 18.0218 67.3541 18.7241 66.5234 18.8086L66.3555 18.8174H64.2852C64.0643 18.8174 63.8848 18.6379 63.8848 18.417C63.8849 18.1963 64.0644 18.0176 64.2852 18.0176H66.3555C66.8232 18.0171 67.2029 17.6367 67.2031 17.1689C67.2027 16.7013 66.8231 16.3217 66.3555 16.3213H64.834L64.9863 16.4736C65.1423 16.6297 65.142 16.8828 64.9863 17.0391C64.8301 17.1951 64.5771 17.1952 64.4209 17.0391L63.5967 16.2148C63.441 16.0586 63.4408 15.8055 63.5967 15.6494L64.4209 14.8252ZM65.459 8C66.2873 8 66.9589 8.67168 66.959 9.5V14.0723H65.959V9.5C65.9589 9.22396 65.7351 9 65.459 9H63.2842V11.9385C63.284 12.2145 63.0602 12.4384 62.7842 12.4385H60.1758C59.8999 12.4383 59.6759 12.2144 59.6758 11.9385V9H57.5C57.2241 9.0002 57.0001 9.22408 57 9.5V16.2734C57 16.5494 57.224 16.7732 57.5 16.7734H62.6885V17.7734H57.5C56.6718 17.7732 56 17.1017 56 16.2734V9.5C56.0001 8.6718 56.6718 8.0002 57.5 8H65.459ZM60.6758 11.4385H62.2842V9H60.6758V11.4385Z" fill="#E32727"/>
</svg>
