<svg width="80" height="28" viewBox="0 0 80 28" fill="none" xmlns="http://www.w3.org/2000/svg">
<rect x="0.5" y="0.5" width="79" height="27" rx="3.5" fill="white"/>
<rect x="0.5" y="0.5" width="79" height="27" rx="3.5" stroke="#E1E3E1"/>
<path d="M15.751 9.63672V11.8818H17.3301V9.63672H18.4365V16.1035H14.623V9.63672H15.751ZM15.751 15.1367H17.3301V12.8271H15.751V15.1367ZM22.7012 8.74512V18.4561H21.5518V13.4824H20.5205V17.9834H19.3926V8.91699H20.5205V12.4941H21.5518V8.74512H22.7012ZM28.615 12.1719V13.4395H32.4607V14.3955H23.6091V13.4395H27.4333V12.1719H28.615ZM28.6257 9.27148C28.6257 10.4531 29.9255 11.5273 31.9558 11.7852L31.4939 12.7197C29.8987 12.4727 28.6311 11.7529 28.0134 10.7324C27.3904 11.7529 26.1228 12.4727 24.5222 12.7197L24.0925 11.7852C26.0905 11.5273 27.4118 10.4316 27.4118 9.27148V8.90625H28.6257V9.27148ZM28.0241 15.0293C30.1296 15.0293 31.3757 15.6416 31.3864 16.7373C31.3757 17.833 30.1296 18.4453 28.0241 18.4453C25.9079 18.4453 24.6404 17.833 24.6404 16.7373C24.6404 15.6416 25.9079 15.0293 28.0241 15.0293ZM28.0241 15.9424C26.5954 15.9424 25.8435 16.2002 25.8542 16.7373C25.8435 17.2744 26.5954 17.543 28.0241 17.543C29.4206 17.543 30.1833 17.2744 30.1941 16.7373C30.1833 16.2002 29.4206 15.9424 28.0241 15.9424ZM35.8286 9.16406C37.2465 9.16406 38.2563 9.94824 38.267 11.1191C38.2563 12.0806 37.5312 12.8057 36.4516 13.0098V13.7939C37.2573 13.751 38.0683 13.6758 38.8256 13.5684L38.9223 14.4385C36.9028 14.8037 34.6469 14.8359 33.0034 14.8359L32.8745 13.8799C33.5727 13.8853 34.3891 13.8799 35.2485 13.8477V13.0098C34.1367 12.8271 33.3901 12.0967 33.4008 11.1191C33.3901 9.94824 34.3998 9.16406 35.8286 9.16406ZM35.8286 10.0771C35.0551 10.0771 34.5073 10.4639 34.518 11.1191C34.5073 11.7529 35.0551 12.1504 35.8286 12.1611C36.602 12.1504 37.1284 11.7529 37.1391 11.1191C37.1284 10.4639 36.602 10.0771 35.8286 10.0771ZM40.5873 8.75586V11.8926H41.8979V12.8809H40.5873V16.168H39.395V8.75586H40.5873ZM40.9311 17.2852V18.252H34.2065V15.5127H35.3989V17.2852H40.9311ZM51.0558 16.3398V17.3281H42.1828V16.3398H44.5353V14.7393H43.2355V11.5703H48.8214V10.3779H43.214V9.41113H50.0031V12.5264H44.4279V13.7725H50.2287V14.7393H48.8107V16.3398H51.0558ZM45.6955 16.3398H47.6398V14.7393H45.6955V16.3398Z" fill="black"/>
<path d="M65.1401 16.0107C65.3374 15.818 65.6541 15.8215 65.8472 16.0186C66.0399 16.2158 66.0362 16.5325 65.8394 16.7256L63.3198 19.1943C63.1256 19.3843 62.8149 19.3841 62.6206 19.1943L61.3608 17.96C61.1637 17.7668 61.1601 17.4502 61.353 17.2529C61.5462 17.056 61.8629 17.0522 62.0601 17.2451L62.9702 18.1367L65.1401 16.0107ZM63.4419 8.51953C64.2701 8.51978 64.9419 9.19125 64.9419 10.0195V14.6592C64.9417 14.935 64.7177 15.1589 64.4419 15.1592C64.1659 15.1592 63.9421 14.9352 63.9419 14.6592V10.0195C63.9419 9.74354 63.7178 9.51978 63.4419 9.51953H61.2212V12.5C61.2207 12.7757 60.997 13 60.7212 13H58.0815C57.8059 12.9998 57.582 12.7756 57.5815 12.5V9.51953H55.3618C55.0857 9.51953 54.8618 9.74339 54.8618 10.0195V16.8994C54.862 17.1754 55.0858 17.3994 55.3618 17.3994H60.0259C60.3018 17.3996 60.5258 17.6235 60.5259 17.8994C60.5257 18.1753 60.3017 18.3992 60.0259 18.3994H55.3618C54.5335 18.3994 53.862 17.7277 53.8618 16.8994V10.0195C53.8618 9.1911 54.5334 8.51953 55.3618 8.51953H63.4419ZM58.5815 12H60.2212V9.51953H58.5815V12Z" fill="black"/>
</svg>
