<svg width="80" height="28" viewBox="0 0 80 28" fill="none" xmlns="http://www.w3.org/2000/svg">
<rect x="0.5" y="0.5" width="79" height="27" rx="3.5" fill="white"/>
<rect x="0.5" y="0.5" width="79" height="27" rx="3.5" stroke="#E1E3E1"/>
<path d="M23.1738 14.1592V15.126H19.3174V18.4453H18.1357V15.126H14.3223V14.1592H23.1738ZM22.3574 9.29297V10.2383H19.4463C19.5161 11.3018 20.7944 12.3223 22.7119 12.5693L22.2822 13.5039C20.6279 13.2729 19.3389 12.5156 18.748 11.4629C18.1572 12.5156 16.8682 13.2729 15.2354 13.5039L14.7842 12.5693C16.6909 12.3223 17.9692 11.3018 18.0605 10.2383H15.1387V9.29297H22.3574ZM32.4714 13.6006V14.5566H28.7224V16.3398H27.5407V14.5566H23.5984V13.6006H32.4714ZM31.3327 9.18555V12.6982H24.7263V9.18555H31.3327ZM25.8864 10.1201V11.7637H30.1511V10.1201H25.8864ZM31.4939 17.2959V18.2627H24.6726V15.4482H25.865V17.2959H31.4939ZM38.7289 9.76562V10.7002H36.7202C36.7416 11.5381 37.5097 12.2847 38.9438 12.5693L38.4711 13.4932C37.3593 13.2622 36.5698 12.7412 36.1401 12.043C35.7158 12.8057 34.9208 13.3804 33.7768 13.6221L33.2719 12.6982C34.7275 12.4136 35.5009 11.5918 35.517 10.7002H33.519V9.76562H35.5278V8.7666H36.7202V9.76562H38.7289ZM41.017 8.75586V18.4453H39.8354V8.75586H41.017ZM32.9067 14.127C34.7114 14.127 37.1284 14.1162 39.2016 13.8584L39.2875 14.7178C38.4496 14.8628 37.5795 14.9541 36.7309 15.0078V18.1553H35.5278V15.0723C34.6415 15.1099 33.7983 15.1152 33.0571 15.1152L32.9067 14.127ZM51.0558 16.2861V17.2529H42.1828V16.2861H45.9855V14.041H47.1671V16.2861H51.0558ZM47.1994 10.0449C47.1994 11.5166 48.6711 12.9668 50.7121 13.2891L50.1964 14.2773C48.5529 13.9658 47.2101 13.0259 46.5656 11.7529C45.9211 13.0205 44.589 13.9766 42.9562 14.2773L42.4406 13.2891C44.4709 12.9668 45.9211 11.5059 45.9318 10.0449V9.33594H47.1994V10.0449Z" fill="#E32727"/>
<path d="M63.7 8.80029C64.5282 8.8005 65.2 9.472 65.2 10.3003V15.8003C65.1999 16.6286 64.5282 17.3001 63.7 17.3003H60.3425L57.8728 18.8745C57.719 18.9724 57.524 18.9787 57.364 18.8911C57.2039 18.8033 57.1043 18.6352 57.1042 18.4526V17.3003H56.3005C55.4721 17.3003 54.8005 16.6287 54.8005 15.8003V10.3003C54.8005 9.47187 55.4721 8.80029 56.3005 8.80029H63.7ZM56.3005 9.80029C56.0244 9.80029 55.8005 10.0242 55.8005 10.3003V15.8003C55.8005 16.0764 56.0244 16.3003 56.3005 16.3003H57.6042C57.8803 16.3004 58.1042 16.5242 58.1042 16.8003V17.5405L59.9275 16.3784L59.99 16.3452C60.0545 16.316 60.1247 16.3003 60.196 16.3003H63.7C63.9759 16.3001 64.1999 16.0763 64.2 15.8003V10.3003C64.2 10.0243 63.9759 9.8005 63.7 9.80029H56.3005ZM61.1824 11.1089C61.3776 10.9139 61.6942 10.9138 61.8894 11.1089C62.0844 11.3041 62.0843 11.6207 61.8894 11.8159L60.7058 12.9995L61.8894 14.1831C62.0843 14.3782 62.0842 14.6949 61.8894 14.8901C61.6942 15.0853 61.3776 15.0852 61.1824 14.8901L59.9988 13.7065L58.8152 14.8911C58.62 15.086 58.3034 15.0859 58.1082 14.8911C57.913 14.696 57.9132 14.3794 58.1082 14.1841L59.2917 12.9995L58.1082 11.8159C57.9129 11.6207 57.913 11.3041 58.1082 11.1089C58.3034 10.9139 58.62 10.9137 58.8152 11.1089L59.9988 12.2925L61.1824 11.1089Z" fill="#E32727"/>
</svg>
