<svg width="80" height="27" viewBox="0 0 80 27" fill="none" xmlns="http://www.w3.org/2000/svg">
<rect x="0.5" y="0.5" width="79" height="26" rx="3.5" fill="white"/>
<rect x="0.5" y="0.5" width="79" height="26" rx="3.5" stroke="#E1E3E1"/>
<path d="M27.8789 8.68555V9.6416H25.0645C25.1719 10.5547 26.3589 11.4248 28.2334 11.6504L27.7822 12.5957C26.042 12.3862 24.7583 11.6182 24.2373 10.5654C23.7163 11.6128 22.4434 12.3862 20.7031 12.5957L20.2627 11.6504C22.1372 11.4248 23.3081 10.5547 23.4209 9.6416H20.6279V8.68555H27.8789ZM28.6846 13.1328V14.0996H24.9355V15.8721H23.7539V14.0996H19.8115V13.1328H28.6846ZM27.707 16.7959V17.7627H20.8857V14.9805H22.0781V16.7959H27.707ZM37.1872 8.24512V17.9668H35.9841V8.24512H37.1872ZM30.8171 9.04004V11.4678H33.1696V9.04004H34.3513V15.6787H29.6247V9.04004H30.8171ZM30.8171 14.7012H33.1696V12.4023H30.8171V14.7012ZM47.2475 12.7031V13.6699H43.4018V14.4756C45.142 14.5938 46.1625 15.1953 46.1733 16.2051C46.1625 17.3223 44.9057 17.9453 42.811 17.9453C40.6948 17.9453 39.4272 17.3223 39.4272 16.2051C39.4272 15.1953 40.4584 14.5884 42.2202 14.4756V13.6699H38.3959V12.7031H47.2475ZM42.811 15.3779C41.393 15.3887 40.6303 15.668 40.6411 16.2051C40.6303 16.7422 41.393 17.0322 42.811 17.0322C44.1967 17.0322 44.9702 16.7422 44.9809 16.2051C44.9702 15.668 44.1967 15.3887 42.811 15.3779ZM46.4526 8.6748V9.63086H43.6596C43.8476 10.4312 45.0078 11.1509 46.8286 11.3174L46.4096 12.2627C44.6479 12.0854 43.3373 11.3818 42.811 10.3936C42.2846 11.3765 40.9955 12.0854 39.2338 12.2627L38.8256 11.3174C40.6088 11.1509 41.769 10.4204 41.9731 9.63086H39.2016V8.6748H46.4526Z" fill="#191D1C"/>
<g clip-path="url(#clip0_478_17740)">
<path d="M57.45 14.95L58.725 16.225M58.3 13.25H60M54.05 11.55L52.775 10.275M57.45 11.55L58.725 10.275M54.05 14.95L52.775 16.225M51.5 13.25H53.2M55.75 9V10.7M55.75 15.8V17.5" stroke="black" stroke-linecap="round" stroke-linejoin="round"/>
</g>
<defs>
<clipPath id="clip0_478_17740">
<rect width="10" height="10" fill="white" transform="translate(50.5 8.5)"/>
</clipPath>
</defs>
</svg>
