<svg width="80" height="28" viewBox="0 0 80 28" fill="none" xmlns="http://www.w3.org/2000/svg">
<rect x="0.5" y="0.5" width="79" height="27" rx="3.5" fill="white"/>
<rect x="0.5" y="0.5" width="79" height="27" rx="3.5" stroke="#E1E3E1"/>
<path d="M14.1846 14.3955V15.3408H10.3174V18.4561H9.13574V15.3408H5.31152V14.3955H14.1846ZM7.56738 9.13184V10.3242H11.9072V9.13184H13.1104V13.3857H6.38574V9.13184H7.56738ZM7.56738 12.4189H11.9072V11.2695H7.56738V12.4189ZM23.4714 13.7725V14.7285H19.7224V16.4043H18.5407V14.7285H14.5984V13.7725H23.4714ZM22.4939 17.2959V18.2627H15.6726V15.5879H16.8542V17.2959H22.4939ZM16.9402 9.05664V10.1523H21.1296V9.05664H22.3112V13.0098H15.7585V9.05664H16.9402ZM16.9402 12.0645H21.1296V11.0439H16.9402V12.0645ZM32.726 12.9453V13.8262H28.9018V14.5352H31.6411V16.8125H26.1196V17.4785H31.9096V18.3701H24.9487V15.9961H30.4702V15.3945H24.9379V14.5352H27.7202V13.8262H23.9174V12.9453H32.726ZM28.9018 8.72363V9.54004H31.8774V10.4316H29.0307C29.2617 11.1191 30.3896 11.6348 32.3286 11.7314L31.9741 12.623C30.2338 12.5156 28.9233 12.043 28.311 11.2588C27.6987 12.043 26.3935 12.5156 24.6371 12.623L24.3041 11.7314C26.2216 11.6348 27.3496 11.1191 27.602 10.4316H24.7661V9.54004H27.7202V8.72363H28.9018ZM41.1105 9.63672V10.5713C41.0998 11.7744 41.0998 13.1279 40.7238 15.1582L39.5207 15.0293C39.8966 13.1387 39.8966 11.7583 39.9074 10.5928H34.1066V9.63672H41.1105ZM42.0343 16.2217V17.1992H33.1828V16.2217H36.4484V12.8486H37.63V16.2217H42.0343ZM45.4022 9.16406C46.8202 9.16406 47.83 9.94824 47.8407 11.1191C47.83 12.0806 47.1049 12.8057 46.0253 13.0098V13.7939C46.8309 13.751 47.642 13.6758 48.3993 13.5684L48.496 14.4385C46.4764 14.8037 44.2206 14.8359 42.577 14.8359L42.4481 13.8799C43.1464 13.8853 43.9628 13.8799 44.8221 13.8477V13.0098C43.7103 12.8271 42.9637 12.0967 42.9745 11.1191C42.9637 9.94824 43.9735 9.16406 45.4022 9.16406ZM45.4022 10.0771C44.6288 10.0771 44.0809 10.4639 44.0917 11.1191C44.0809 11.7529 44.6288 12.1504 45.4022 12.1611C46.1757 12.1504 46.702 11.7529 46.7128 11.1191C46.702 10.4639 46.1757 10.0771 45.4022 10.0771ZM50.161 8.75586V11.8926H51.4716V12.8809H50.161V16.168H48.9686V8.75586H50.161ZM50.5048 17.2852V18.252H43.7802V15.5127H44.9725V17.2852H50.5048ZM60.6295 16.3398V17.3281H51.7564V16.3398H54.109V14.7393H52.8092V11.5703H58.3951V10.3779H52.7877V9.41113H59.5768V12.5264H54.0016V13.7725H59.8023V14.7393H58.3844V16.3398H60.6295ZM55.2691 16.3398H57.2135V14.7393H55.2691V16.3398Z" fill="#191D1C"/>
<path d="M65.0582 8.80078C65.3198 8.79687 65.6946 8.8681 66.0192 9.10547C66.3745 9.36544 66.6237 9.79304 66.6237 10.3936V15.9014C67.125 16.0516 67.5199 16.4493 67.6735 16.9531H73.6998C73.976 16.9531 74.1998 17.177 74.1998 17.4531C74.1996 17.7291 73.9759 17.9531 73.6998 17.9531H67.65C67.4328 18.5627 66.8564 18.9987 66.1774 18.999L66.0172 18.9912C65.2268 18.9104 64.61 18.2367 64.61 17.418C64.6102 16.7417 65.0316 16.1662 65.6237 15.9404V10.3936C65.6237 10.1003 65.5178 9.97687 65.4293 9.91211C65.315 9.82859 65.1629 9.79856 65.0699 9.80078H64.2994C64.0236 9.80054 63.7996 9.57664 63.7994 9.30078C63.7996 9.0249 64.0236 8.80102 64.2994 8.80078H65.0582ZM66.1774 16.8369C65.8727 16.8369 65.6103 17.0889 65.61 17.418C65.61 17.7473 65.8726 17.999 66.1774 17.999C66.4819 17.9987 66.7438 17.7471 66.7438 17.418C66.7435 17.0891 66.4817 16.8373 66.1774 16.8369ZM71.358 9.44141C71.6339 9.44172 71.858 9.66546 71.858 9.94141V12.4414H73.1754L73.277 12.4512C73.5046 12.498 73.6754 12.7 73.6754 12.9414V15.9414C73.6753 16.2174 73.4514 16.4413 73.1754 16.4414H67.7213C67.4452 16.4414 67.2214 16.2175 67.2213 15.9414V9.94141C67.2213 9.66526 67.4452 9.44141 67.7213 9.44141H71.358ZM68.2213 15.4414H72.6754V13.4414H68.2213V15.4414ZM68.2213 12.4414H70.858V10.4414H68.2213V12.4414Z" fill="black"/>
</svg>
