<svg width="80" height="28" viewBox="0 0 80 28" fill="none" xmlns="http://www.w3.org/2000/svg">
<rect x="0.5" y="0.5" width="79" height="27" rx="3.5" fill="white"/>
<rect x="0.5" y="0.5" width="79" height="27" rx="3.5" stroke="#E1E3E1"/>
<path d="M20.251 9.63672V11.8818H21.8301V9.63672H22.9365V16.1035H19.123V9.63672H20.251ZM20.251 15.1367H21.8301V12.8271H20.251V15.1367ZM27.2012 8.74512V18.4561H26.0518V13.4824H25.0205V17.9834H23.8926V8.91699H25.0205V12.4941H26.0518V8.74512H27.2012ZM33.115 12.1719V13.4395H36.9607V14.3955H28.1091V13.4395H31.9333V12.1719H33.115ZM33.1257 9.27148C33.1257 10.4531 34.4255 11.5273 36.4558 11.7852L35.9939 12.7197C34.3987 12.4727 33.1311 11.7529 32.5134 10.7324C31.8904 11.7529 30.6228 12.4727 29.0222 12.7197L28.5925 11.7852C30.5905 11.5273 31.9118 10.4316 31.9118 9.27148V8.90625H33.1257V9.27148ZM32.5241 15.0293C34.6296 15.0293 35.8757 15.6416 35.8864 16.7373C35.8757 17.833 34.6296 18.4453 32.5241 18.4453C30.4079 18.4453 29.1404 17.833 29.1404 16.7373C29.1404 15.6416 30.4079 15.0293 32.5241 15.0293ZM32.5241 15.9424C31.0954 15.9424 30.3435 16.2002 30.3542 16.7373C30.3435 17.2744 31.0954 17.543 32.5241 17.543C33.9206 17.543 34.6833 17.2744 34.6941 16.7373C34.6833 16.2002 33.9206 15.9424 32.5241 15.9424ZM46.2475 13.2031V14.1699H42.4018V14.9756C44.142 15.0938 45.1625 15.6953 45.1733 16.7051C45.1625 17.8223 43.9057 18.4453 41.811 18.4453C39.6948 18.4453 38.4272 17.8223 38.4272 16.7051C38.4272 15.6953 39.4584 15.0884 41.2202 14.9756V14.1699H37.3959V13.2031H46.2475ZM41.811 15.8779C40.393 15.8887 39.6303 16.168 39.6411 16.7051C39.6303 17.2422 40.393 17.5322 41.811 17.5322C43.1967 17.5322 43.9702 17.2422 43.9809 16.7051C43.9702 16.168 43.1967 15.8887 41.811 15.8779ZM45.4526 9.1748V10.1309H42.6596C42.8476 10.9312 44.0078 11.6509 45.8286 11.8174L45.4096 12.7627C43.6479 12.5854 42.3373 11.8818 41.811 10.8936C41.2846 11.8765 39.9955 12.5854 38.2338 12.7627L37.8256 11.8174C39.6088 11.6509 40.769 10.9204 40.9731 10.1309H38.2016V9.1748H45.4526Z" fill="#191D1C"/>
<path d="M55.7295 9.29688C56.5448 9.29688 57.2068 9.94748 57.2275 10.7578H58.6504C58.8419 10.7578 59.017 10.8678 59.1006 11.04L60.2783 13.4688L61.0596 13.7266C61.2646 13.7941 61.4032 13.9854 61.4033 14.2012V15.498C61.4032 16.0579 61.0954 16.5437 60.6406 16.8008C60.6622 16.9063 60.6748 17.0152 60.6748 17.127L60.666 17.2988C60.5775 18.1419 59.8429 18.7997 58.9502 18.7998L58.7734 18.791C57.904 18.7052 57.2256 17.9927 57.2256 17.127C57.2256 17.0835 57.2291 17.0406 57.2324 16.998H54.3457C54.3491 17.0406 54.3515 17.0836 54.3516 17.127L54.3428 17.2988C54.2543 18.1419 53.5196 18.7997 52.627 18.7998L52.4502 18.791C51.5809 18.7051 50.9023 17.9926 50.9023 17.127C50.9024 17.0789 50.9051 17.0314 50.9092 16.9844C50.17 16.8915 49.5978 16.2624 49.5977 15.498V10.7969C49.5977 9.96854 50.2693 9.29697 51.0977 9.29688H55.7295ZM58.9502 16.4551C58.5212 16.4551 58.226 16.7846 58.2256 17.127C58.2256 17.4695 58.5209 17.7998 58.9502 17.7998C59.3794 17.7997 59.6748 17.4695 59.6748 17.127C59.6744 16.7846 59.3791 16.4552 58.9502 16.4551ZM52.627 16.4551C52.1981 16.4552 51.9027 16.7847 51.9023 17.127C51.9023 17.4695 52.1978 17.7997 52.627 17.7998C53.0561 17.7997 53.3516 17.4695 53.3516 17.127C53.3512 16.7846 53.0559 16.4552 52.627 16.4551ZM51.0977 10.2969C50.8216 10.297 50.5977 10.5208 50.5977 10.7969V15.498C50.5978 15.774 50.8217 15.9979 51.0977 15.998H51.3584C51.6736 15.6654 52.1244 15.4551 52.627 15.4551L52.8027 15.4639C53.235 15.5064 53.6203 15.704 53.8984 15.998H57.6807C57.9959 15.6651 58.4474 15.4551 58.9502 15.4551L59.126 15.4639C59.5224 15.5028 59.8784 15.6731 60.1494 15.9277C60.3 15.842 60.4032 15.6837 60.4033 15.498V14.5625L59.7656 14.3525C59.7173 14.3366 59.6736 14.3112 59.6328 14.2822H56.7295C56.4535 14.2821 56.2295 14.0583 56.2295 13.7822V10.7969C56.2295 10.5208 56.0056 10.2969 55.7295 10.2969H51.0977ZM57.2295 13.2822H59.0771L58.3379 11.7578H57.2295V13.2822Z" fill="black"/>
</svg>
