<svg width="80" height="28" viewBox="0 0 80 28" fill="none" xmlns="http://www.w3.org/2000/svg">
<rect x="0.5" y="0.5" width="79" height="27" rx="3.5" fill="white"/>
<rect x="0.5" y="0.5" width="79" height="27" rx="3.5" stroke="#E1E3E1"/>
<path d="M23.1523 12.9453V13.8262H19.3281V14.5352H22.0674V16.8125H16.5459V17.4785H22.3359V18.3701H15.375V15.9961H20.8965V15.3945H15.3643V14.5352H18.1465V13.8262H14.3438V12.9453H23.1523ZM19.3281 8.72363V9.54004H22.3037V10.4316H19.457C19.688 11.1191 20.8159 11.6348 22.7549 11.7314L22.4004 12.623C20.6602 12.5156 19.3496 12.043 18.7373 11.2588C18.125 12.043 16.8198 12.5156 15.0635 12.623L14.7305 11.7314C16.6479 11.6348 17.7759 11.1191 18.0283 10.4316H15.1924V9.54004H18.1465V8.72363H19.3281ZM31.5368 9.63672V10.5713C31.5261 11.7744 31.5261 13.1279 31.1501 15.1582L29.947 15.0293C30.323 13.1387 30.323 11.7583 30.3337 10.5928H24.5329V9.63672H31.5368ZM32.4607 16.2217V17.1992H23.6091V16.2217H26.8747V12.8486H28.0564V16.2217H32.4607ZM35.8286 9.16406C37.2465 9.16406 38.2563 9.94824 38.267 11.1191C38.2563 12.0806 37.5312 12.8057 36.4516 13.0098V13.7939C37.2573 13.751 38.0683 13.6758 38.8256 13.5684L38.9223 14.4385C36.9028 14.8037 34.6469 14.8359 33.0034 14.8359L32.8745 13.8799C33.5727 13.8853 34.3891 13.8799 35.2485 13.8477V13.0098C34.1367 12.8271 33.3901 12.0967 33.4008 11.1191C33.3901 9.94824 34.3998 9.16406 35.8286 9.16406ZM35.8286 10.0771C35.0551 10.0771 34.5073 10.4639 34.518 11.1191C34.5073 11.7529 35.0551 12.1504 35.8286 12.1611C36.602 12.1504 37.1284 11.7529 37.1391 11.1191C37.1284 10.4639 36.602 10.0771 35.8286 10.0771ZM40.5873 8.75586V11.8926H41.8979V12.8809H40.5873V16.168H39.395V8.75586H40.5873ZM40.9311 17.2852V18.252H34.2065V15.5127H35.3989V17.2852H40.9311ZM51.0558 16.3398V17.3281H42.1828V16.3398H44.5353V14.7393H43.2355V11.5703H48.8214V10.3779H43.214V9.41113H50.0031V12.5264H44.4279V13.7725H50.2287V14.7393H48.8107V16.3398H51.0558ZM45.6955 16.3398H47.6398V14.7393H45.6955V16.3398Z" fill="black"/>
<path d="M56.0582 8.80078C56.3198 8.79687 56.6946 8.8681 57.0192 9.10547C57.3745 9.36544 57.6237 9.79304 57.6237 10.3936V15.9014C58.125 16.0516 58.5199 16.4493 58.6735 16.9531H64.6998C64.976 16.9531 65.1998 17.177 65.1998 17.4531C65.1996 17.7291 64.9759 17.9531 64.6998 17.9531H58.65C58.4328 18.5627 57.8564 18.9987 57.1774 18.999L57.0172 18.9912C56.2268 18.9104 55.61 18.2367 55.61 17.418C55.6102 16.7417 56.0316 16.1662 56.6237 15.9404V10.3936C56.6237 10.1003 56.5178 9.97687 56.4293 9.91211C56.315 9.82859 56.1629 9.79856 56.0699 9.80078H55.2994C55.0236 9.80054 54.7996 9.57664 54.7994 9.30078C54.7996 9.0249 55.0236 8.80102 55.2994 8.80078H56.0582ZM57.1774 16.8369C56.8727 16.8369 56.6103 17.0889 56.61 17.418C56.61 17.7473 56.8726 17.999 57.1774 17.999C57.4819 17.9987 57.7438 17.7471 57.7438 17.418C57.7435 17.0891 57.4817 16.8373 57.1774 16.8369ZM62.358 9.44141C62.6339 9.44172 62.858 9.66546 62.858 9.94141V12.4414H64.1754L64.277 12.4512C64.5046 12.498 64.6754 12.7 64.6754 12.9414V15.9414C64.6753 16.2174 64.4514 16.4413 64.1754 16.4414H58.7213C58.4452 16.4414 58.2214 16.2175 58.2213 15.9414V9.94141C58.2213 9.66526 58.4452 9.44141 58.7213 9.44141H62.358ZM59.2213 15.4414H63.6754V13.4414H59.2213V15.4414ZM59.2213 12.4414H61.858V10.4414H59.2213V12.4414Z" fill="black"/>
</svg>
