<svg width="80" height="27" viewBox="0 0 80 27" fill="none" xmlns="http://www.w3.org/2000/svg">
<rect x="0.5" y="0.5" width="79" height="26" rx="3.5" fill="white"/>
<rect x="0.5" y="0.5" width="79" height="26" rx="3.5" stroke="#E1E3E1"/>
<path d="M23.4111 8.24512V13.4551H22.208V8.24512H23.4111ZM18.1689 13.9062V14.9053H22.2188V13.9062H23.4111V17.8379H16.9873V13.9062H18.1689ZM18.1689 16.8711H22.2188V15.8398H18.1689V16.8711ZM18.1152 8.6748C19.6084 8.66406 20.7256 9.59863 20.7256 10.9521C20.7256 12.2734 19.6084 13.208 18.1152 13.208C16.6113 13.208 15.4941 12.2734 15.4941 10.9521C15.4941 9.59863 16.6113 8.66406 18.1152 8.6748ZM18.1152 9.67383C17.2666 9.67383 16.6543 10.168 16.665 10.9521C16.6543 11.7256 17.2666 12.2197 18.1152 12.2305C18.9531 12.2197 19.5547 11.7256 19.5547 10.9521C19.5547 10.168 18.9531 9.67383 18.1152 9.67383ZM32.3972 8.71777V9.46973C32.3972 10.2217 32.3972 11.0811 32.1609 12.2305H33.4821V13.1973H24.6091V12.2305H30.9577C31.1833 11.1831 31.2048 10.3828 31.2048 9.67383H25.7048V8.71777H32.3972ZM32.3864 14.3252V17.8379H25.6726V14.3252H32.3864ZM26.8435 15.2598V16.8711H31.2048V15.2598H26.8435ZM42.2534 8.24512V17.9561H41.1147V13.0039H40.019V17.4619H38.9233V8.42773H40.019V12.0479H41.1147V8.24512H42.2534ZM37.8276 9.39453V10.3613H35.3998V14.6797C36.4579 14.6689 37.3281 14.6152 38.311 14.4326L38.3969 15.4102C37.226 15.6465 36.2055 15.6787 34.852 15.6895H34.1967V9.39453H37.8276ZM51.2931 8.24512V17.9561H50.09V8.24512H51.2931ZM48.3927 9.27637C48.3927 12.166 47.2755 14.626 43.8703 16.2373L43.2472 15.2812C45.7878 14.0728 46.9694 12.4292 47.1789 10.2217H43.7414V9.27637H48.3927Z" fill="#191D1C"/>
<path d="M60 8.5C62.7614 8.5 65 10.7386 65 13.5C65 16.2614 62.7614 18.5 60 18.5C57.2386 18.5 55 16.2614 55 13.5C55 10.7386 57.2386 8.5 60 8.5ZM60 9.5C57.7909 9.5 56 11.2909 56 13.5C56 15.7091 57.7909 17.5 60 17.5C62.2091 17.5 64 15.7091 64 13.5C64 11.2909 62.2091 9.5 60 9.5ZM59.875 10.375C60.1511 10.375 60.3749 10.599 60.375 10.875V13.2529L62.5186 13.8965C62.783 13.9758 62.9327 14.2541 62.8535 14.5186C62.7742 14.7831 62.4959 14.9329 62.2314 14.8535L59.7314 14.1035C59.52 14.04 59.375 13.8458 59.375 13.625V10.875C59.3751 10.599 59.5989 10.375 59.875 10.375Z" fill="black"/>
</svg>
