<svg width="80" height="27" viewBox="0 0 80 27" fill="none" xmlns="http://www.w3.org/2000/svg">
<rect x="0.5" y="0.5" width="79" height="26" rx="3.5" fill="white"/>
<rect x="0.5" y="0.5" width="79" height="26" rx="3.5" stroke="#E1E3E1"/>
<path d="M18.7822 9.13672V10.125C18.7822 11.3281 18.7822 12.6387 18.4277 14.54L17.2568 14.4219C17.5898 12.6279 17.5898 11.2959 17.5898 10.125V10.0928H11.7139V9.13672H18.7822ZM19.6738 15.7217V16.6992H10.8223V15.7217H12.8096V12.6279H14.002V15.7217H15.2373V12.6279H16.4082V15.7217H19.6738ZM27.8005 8.24512V11.5H29.1111V12.4883H27.8005V15.8291H26.6081V8.24512H27.8005ZM28.1443 16.7959V17.7627H21.4196V15.3242H22.612V16.7959H28.1443ZM20.0232 13.8848C20.7483 13.8848 21.5915 13.8794 22.4724 13.8418V13.2295C21.3928 13.1006 20.7107 12.5688 20.7107 11.79C20.7107 10.834 21.6452 10.2754 23.0525 10.2861C24.4704 10.2754 25.3943 10.834 25.3943 11.79C25.3943 12.5635 24.7282 13.0898 23.6648 13.2295V13.7881C24.4919 13.7451 25.3244 13.6699 26.1032 13.5518L26.1999 14.3896C24.1482 14.7764 21.8279 14.7979 20.1521 14.8193L20.0232 13.8848ZM25.8454 9.09375V9.96387H20.2702V9.09375H22.4724V8.21289H23.6648V9.09375H25.8454ZM23.0525 11.0918C22.3005 11.0918 21.8493 11.3389 21.8601 11.79C21.8493 12.209 22.3005 12.4561 23.0525 12.4561C23.8044 12.4561 24.2556 12.209 24.2556 11.79C24.2556 11.3389 23.8044 11.0918 23.0525 11.0918ZM37.5385 8.24512V17.9668H36.3461V13.0039H34.4662V12.0371H36.3461V8.24512H37.5385ZM32.9409 11.3281C32.9301 12.7998 33.811 14.3682 35.3471 15.0449L34.7026 15.958C33.5908 15.4854 32.7851 14.5132 32.3608 13.3477C31.9311 14.583 31.1308 15.6196 30.019 16.1191L29.3745 15.1953C30.8891 14.5078 31.7485 12.8535 31.7485 11.3281V10.8232H29.6645V9.86719H31.7592V8.44922H32.9516V9.86719H34.9819V10.8232H32.9409V11.3281ZM46.7716 8.24512V17.9668H45.59V8.24512H46.7716ZM43.7853 9.09375V12.7354H40.4445V14.6904C41.9753 14.6797 43.2965 14.6045 44.8058 14.3467L44.9132 15.3242C43.2589 15.6143 41.8088 15.668 40.0685 15.668H39.2199V11.79H42.5714V10.0605H39.2091V9.09375H43.7853ZM56.8212 12.7031V13.6699H52.9755V14.4756C54.7157 14.5938 55.7362 15.1953 55.747 16.2051C55.7362 17.3223 54.4794 17.9453 52.3846 17.9453C50.2684 17.9453 49.0009 17.3223 49.0009 16.2051C49.0009 15.1953 50.0321 14.5884 51.7938 14.4756V13.6699H47.9696V12.7031H56.8212ZM52.3846 15.3779C50.9667 15.3887 50.204 15.668 50.2147 16.2051C50.204 16.7422 50.9667 17.0322 52.3846 17.0322C53.7704 17.0322 54.5438 16.7422 54.5546 16.2051C54.5438 15.668 53.7704 15.3887 52.3846 15.3779ZM56.0262 8.6748V9.63086H53.2333C53.4213 10.4312 54.5814 11.1509 56.4022 11.3174L55.9833 12.2627C54.2216 12.0854 52.911 11.3818 52.3846 10.3936C51.8583 11.3765 50.5692 12.0854 48.8075 12.2627L48.3993 11.3174C50.1825 11.1509 51.3427 10.4204 51.5468 9.63086H48.7753V8.6748H56.0262Z" fill="#191D1C"/>
<path d="M64.5 8.5C67.2614 8.5 69.5 10.7386 69.5 13.5C69.5 16.2614 67.2614 18.5 64.5 18.5C61.7386 18.5 59.5 16.2614 59.5 13.5C59.5 10.7386 61.7386 8.5 64.5 8.5ZM64.5 9.5C62.2909 9.5 60.5 11.2909 60.5 13.5C60.5 15.7091 62.2909 17.5 64.5 17.5C66.7091 17.5 68.5 15.7091 68.5 13.5C68.5 11.2909 66.7091 9.5 64.5 9.5ZM64.375 10.375C64.6511 10.375 64.8749 10.599 64.875 10.875V13.2529L67.0186 13.8965C67.283 13.9758 67.4327 14.2541 67.3535 14.5186C67.2742 14.7831 66.9959 14.9329 66.7314 14.8535L64.2314 14.1035C64.02 14.04 63.875 13.8458 63.875 13.625V10.875C63.8751 10.599 64.0989 10.375 64.375 10.375Z" fill="black"/>
</svg>
