<svg width="80" height="28" viewBox="0 0 80 28" fill="none" xmlns="http://www.w3.org/2000/svg">
<rect x="0.5" y="0.5" width="79" height="27" rx="3.5" fill="white"/>
<rect x="0.5" y="0.5" width="79" height="27" rx="3.5" stroke="#E1E3E1"/>
<path d="M22.2822 9.63672V10.625C22.2822 11.8281 22.2822 13.1387 21.9277 15.04L20.7568 14.9219C21.0898 13.1279 21.0898 11.7959 21.0898 10.625V10.5928H15.2139V9.63672H22.2822ZM23.1738 16.2217V17.1992H14.3223V16.2217H16.3096V13.1279H17.502V16.2217H18.7373V13.1279H19.9082V16.2217H23.1738ZM31.3005 8.74512V12H32.6111V12.9883H31.3005V16.3291H30.1081V8.74512H31.3005ZM31.6443 17.2959V18.2627H24.9196V15.8242H26.112V17.2959H31.6443ZM23.5232 14.3848C24.2483 14.3848 25.0915 14.3794 25.9724 14.3418V13.7295C24.8928 13.6006 24.2107 13.0688 24.2107 12.29C24.2107 11.334 25.1452 10.7754 26.5525 10.7861C27.9704 10.7754 28.8943 11.334 28.8943 12.29C28.8943 13.0635 28.2282 13.5898 27.1648 13.7295V14.2881C27.9919 14.2451 28.8244 14.1699 29.6032 14.0518L29.6999 14.8896C27.6482 15.2764 25.3279 15.2979 23.6521 15.3193L23.5232 14.3848ZM29.3454 9.59375V10.4639H23.7702V9.59375H25.9724V8.71289H27.1648V9.59375H29.3454ZM26.5525 11.5918C25.8005 11.5918 25.3493 11.8389 25.3601 12.29C25.3493 12.709 25.8005 12.9561 26.5525 12.9561C27.3044 12.9561 27.7556 12.709 27.7556 12.29C27.7556 11.8389 27.3044 11.5918 26.5525 11.5918ZM35.8286 9.16406C37.2465 9.16406 38.2563 9.94824 38.267 11.1191C38.2563 12.0806 37.5312 12.8057 36.4516 13.0098V13.7939C37.2573 13.751 38.0683 13.6758 38.8256 13.5684L38.9223 14.4385C36.9028 14.8037 34.6469 14.8359 33.0034 14.8359L32.8745 13.8799C33.5727 13.8853 34.3891 13.8799 35.2485 13.8477V13.0098C34.1367 12.8271 33.3901 12.0967 33.4008 11.1191C33.3901 9.94824 34.3998 9.16406 35.8286 9.16406ZM35.8286 10.0771C35.0551 10.0771 34.5073 10.4639 34.518 11.1191C34.5073 11.7529 35.0551 12.1504 35.8286 12.1611C36.602 12.1504 37.1284 11.7529 37.1391 11.1191C37.1284 10.4639 36.602 10.0771 35.8286 10.0771ZM40.5873 8.75586V11.8926H41.8979V12.8809H40.5873V16.168H39.395V8.75586H40.5873ZM40.9311 17.2852V18.252H34.2065V15.5127H35.3989V17.2852H40.9311ZM51.0558 16.3398V17.3281H42.1828V16.3398H44.5353V14.7393H43.2355V11.5703H48.8214V10.3779H43.214V9.41113H50.0031V12.5264H44.4279V13.7725H50.2287V14.7393H48.8107V16.3398H51.0558ZM45.6955 16.3398H47.6398V14.7393H45.6955V16.3398Z" fill="#191D1C"/>
<path d="M64.4368 14.2227C64.603 14.1397 64.8017 14.1561 64.9524 14.2646C65.1031 14.3732 65.1815 14.5563 65.1555 14.7402C64.798 17.2639 62.6255 19.2 60.0002 19.2002C57.3748 19.2002 55.2016 17.264 54.844 14.7402C54.8053 14.4669 54.9955 14.2136 55.2688 14.1748C55.5421 14.1361 55.7954 14.3264 55.8342 14.5996C56.1225 16.6348 57.8773 18.2002 60.0002 18.2002C61.7557 18.2 63.2572 17.1289 63.8879 15.6074C63.6504 15.6986 63.3789 15.5995 63.2629 15.3672C63.1398 15.1201 63.2405 14.8196 63.4875 14.6963L64.4368 14.2227ZM61.2336 12.6094C61.4221 12.4075 61.7388 12.3966 61.9407 12.585C62.1421 12.7733 62.1532 13.0892 61.9651 13.291L59.8655 15.541C59.771 15.6423 59.6378 15.7001 59.4993 15.7002C59.3608 15.7001 59.2285 15.6422 59.134 15.541L58.0842 14.416C57.8958 14.2141 57.9068 13.8984 58.1086 13.71C58.3105 13.5216 58.6263 13.5325 58.8147 13.7344L59.4993 14.4668L61.2336 12.6094ZM60.0002 8.7998C62.6231 8.80004 64.7954 10.7344 65.1555 13.2578C65.1942 13.5309 65.0039 13.7843 64.7307 13.8232C64.4576 13.862 64.2044 13.6715 64.1653 13.3984C63.8747 11.3632 62.1206 9.80004 60.0002 9.7998C58.2471 9.79982 56.744 10.8684 56.1116 12.3887C56.349 12.2979 56.6207 12.3987 56.7366 12.6309C56.8596 12.8779 56.759 13.1785 56.512 13.3018L55.5627 13.7754C55.3965 13.8583 55.1969 13.8421 55.0461 13.7334C54.8958 13.6247 54.818 13.4415 54.844 13.2578C55.2041 10.7343 57.3772 8.79983 60.0002 8.7998Z" fill="black"/>
</svg>
