<svg width="80" height="27" viewBox="0 0 80 27" fill="none" xmlns="http://www.w3.org/2000/svg">
<rect x="0.5" y="0.5" width="79" height="26" rx="3.5" fill="white"/>
<rect x="0.5" y="0.5" width="79" height="26" rx="3.5" stroke="#E1E3E1"/>
<path d="M11.7471 9.08301V10.0605H8.0625V11.79H11.3604V12.7354H8.0625V14.7334C9.65234 14.728 10.8662 14.6743 12.2627 14.4434L12.3809 15.4102C10.8555 15.6465 9.49121 15.7002 7.69727 15.7002H6.88086V9.08301H11.7471ZM14.4326 8.24512V17.9561H13.2295V8.24512H14.4326ZM23.9558 8.25586V14.7764H22.8171V8.25586H23.9558ZM21.9792 8.41699V13.9062H20.8405V11.9512H19.2614C18.6867 13.0308 17.6985 13.9009 16.1677 14.5615L15.5984 13.7021C16.8445 13.1758 17.6609 12.5205 18.155 11.7363L15.8239 11.9941L15.6628 11.0166L18.5632 10.8662C18.6438 10.5815 18.7029 10.2861 18.7351 9.97461H16.0925V9.00781H19.906C19.906 9.7168 19.8254 10.3774 19.6482 10.9844H20.8405V8.41699H21.9792ZM21.195 14.4648C21.195 15.6143 22.4626 16.71 24.4284 16.9785L23.9665 17.9023C22.425 17.666 21.2219 16.9517 20.615 15.958C20.008 16.9517 18.7942 17.666 17.2634 17.9023L16.78 16.9785C18.7566 16.71 20.0134 15.6143 20.0241 14.4648V14.2178H21.195V14.4648ZM28.3657 10.5762C28.3549 12.3057 29.225 14.0674 30.7289 14.7871L29.9985 15.7432C28.9457 15.2114 28.1884 14.1855 27.7748 12.9502C27.3505 14.2715 26.5556 15.3672 25.4438 15.9258L24.7133 14.9697C26.2709 14.2285 27.1625 12.3701 27.1733 10.5762V9.0293H28.3657V10.5762ZM32.5014 8.24512V12.0479H33.9946V13.0684H32.5014V17.9561H31.309V8.24512H32.5014ZM43.0343 12.918V13.874H34.1828V12.918H36.2453V11.6826C35.5148 11.3765 35.0959 10.8877 35.0959 10.2539C35.0959 9.09375 36.4601 8.40625 38.5978 8.40625C40.7355 8.40625 42.089 9.09375 42.0998 10.2539C42.0944 10.8931 41.6754 11.3818 40.9396 11.6826V12.918H43.0343ZM38.5978 14.4648C40.6925 14.4541 41.9494 15.0771 41.9601 16.1943C41.9494 17.3223 40.6925 17.9346 38.5978 17.9346C36.4816 17.9346 35.214 17.3223 35.214 16.1943C35.214 15.0771 36.4816 14.4541 38.5978 14.4648ZM38.5978 15.3672C37.1798 15.3672 36.4171 15.6465 36.4279 16.1943C36.4171 16.7422 37.1798 17.0322 38.5978 17.0322C39.9836 17.0322 40.757 16.7422 40.7677 16.1943C40.757 15.6465 39.9836 15.3672 38.5978 15.3672ZM38.5978 9.33008C37.1584 9.33008 36.3312 9.65234 36.342 10.2539C36.3312 10.8447 37.1584 11.1562 38.5978 11.1562C40.0265 11.1562 40.8644 10.8447 40.8644 10.2539C40.8644 9.65234 40.0265 9.33008 38.5978 9.33008ZM37.4484 12.918H39.7472V11.9941C39.3981 12.0425 39.0114 12.0693 38.5978 12.0693C38.1842 12.0693 37.7975 12.0425 37.4484 11.9941V12.918ZM51.827 8.24512V17.9561H50.6884V13.0039H49.5927V17.4619H48.497V8.42773H49.5927V12.0479H50.6884V8.24512H51.827ZM47.4012 9.39453V10.3613H44.9735V14.6797C46.0316 14.6689 46.9017 14.6152 47.8846 14.4326L47.9706 15.4102C46.7997 15.6465 45.7792 15.6787 44.4257 15.6895H43.7704V9.39453H47.4012ZM60.8668 8.24512V17.9561H59.6637V8.24512H60.8668ZM57.9664 9.27637C57.9664 12.166 56.8492 14.626 53.4439 16.2373L52.8209 15.2812C55.3614 14.0728 56.5431 12.4292 56.7525 10.2217H53.315V9.27637H57.9664Z" fill="#191D1C"/>
<path d="M69 8.5C71.7614 8.5 74 10.7386 74 13.5C74 16.2614 71.7614 18.5 69 18.5C66.2386 18.5 64 16.2614 64 13.5C64 10.7386 66.2386 8.5 69 8.5ZM69 9.5C66.7909 9.5 65 11.2909 65 13.5C65 15.7091 66.7909 17.5 69 17.5C71.2091 17.5 73 15.7091 73 13.5C73 11.2909 71.2091 9.5 69 9.5ZM68.875 10.375C69.1511 10.375 69.3749 10.599 69.375 10.875V13.2529L71.5186 13.8965C71.783 13.9758 71.9327 14.2541 71.8535 14.5186C71.7742 14.7831 71.4959 14.9329 71.2314 14.8535L68.7314 14.1035C68.52 14.04 68.375 13.8458 68.375 13.625V10.875C68.3751 10.599 68.5989 10.375 68.875 10.375Z" fill="black"/>
</svg>
