<svg width="80" height="28" viewBox="0 0 80 28" fill="none" xmlns="http://www.w3.org/2000/svg">
<rect x="0.5" y="0.5" width="79" height="27" rx="3.5" fill="white"/>
<rect x="0.5" y="0.5" width="79" height="27" rx="3.5" stroke="#E1E3E1"/>
<path d="M22.4541 8.74512V13.665H21.2617V12.8164H18.9199V11.9033H21.2617V10.9473H19.0488C18.4365 12.4297 17.0186 13.3965 14.8701 13.8799L14.4512 12.9023C16.7339 12.4297 17.8726 11.4253 18.0391 10.1309H14.9883V9.16406H19.3711C19.3711 9.47021 19.3442 9.76025 19.3066 10.0342H21.2617V8.74512H22.4541ZM22.4541 14.041V16.5977H17.2656V17.4033H22.7119V18.3594H16.0732V15.7061H21.2617V14.9863H16.0625V14.041H22.4541ZM31.9665 8.74512V18.4561H30.8279V8.74512H31.9665ZM29.99 8.92773V17.9834H28.862V13.0957H27.4655V12.1289H28.862V8.92773H29.99ZM26.6062 11.3984C26.6062 13.042 27.197 14.6855 28.5827 15.4805L27.8737 16.3613C26.9768 15.8242 26.3806 14.9004 26.0476 13.7939C25.7038 14.9917 25.0862 16.0122 24.1677 16.5869L23.4372 15.6953C24.8445 14.8467 25.4568 13.085 25.4568 11.3984V10.7539H23.7702V9.78711H28.1745V10.7539H26.6062V11.3984ZM35.8286 9.16406C37.2465 9.16406 38.2563 9.94824 38.267 11.1191C38.2563 12.0806 37.5312 12.8057 36.4516 13.0098V13.7939C37.2573 13.751 38.0683 13.6758 38.8256 13.5684L38.9223 14.4385C36.9028 14.8037 34.6469 14.8359 33.0034 14.8359L32.8745 13.8799C33.5727 13.8853 34.3891 13.8799 35.2485 13.8477V13.0098C34.1367 12.8271 33.3901 12.0967 33.4008 11.1191C33.3901 9.94824 34.3998 9.16406 35.8286 9.16406ZM35.8286 10.0771C35.0551 10.0771 34.5073 10.4639 34.518 11.1191C34.5073 11.7529 35.0551 12.1504 35.8286 12.1611C36.602 12.1504 37.1284 11.7529 37.1391 11.1191C37.1284 10.4639 36.602 10.0771 35.8286 10.0771ZM40.5873 8.75586V11.8926H41.8979V12.8809H40.5873V16.168H39.395V8.75586H40.5873ZM40.9311 17.2852V18.252H34.2065V15.5127H35.3989V17.2852H40.9311ZM51.0558 16.3398V17.3281H42.1828V16.3398H44.5353V14.7393H43.2355V11.5703H48.8214V10.3779H43.214V9.41113H50.0031V12.5264H44.4279V13.7725H50.2287V14.7393H48.8107V16.3398H51.0558ZM45.6955 16.3398H47.6398V14.7393H45.6955V16.3398Z" fill="black"/>
<path d="M65.3438 16.7979C65.539 16.6028 65.8556 16.6027 66.0508 16.7979C66.2453 16.9931 66.2456 17.3098 66.0508 17.5049L63.9502 19.6045C63.8565 19.6981 63.7291 19.7509 63.5967 19.751C63.4644 19.7509 63.3368 19.6979 63.2432 19.6045L62.1934 18.5547C61.9982 18.3595 61.9983 18.0429 62.1934 17.8477C62.3886 17.6525 62.7052 17.6525 62.9004 17.8477L63.5967 18.5439L65.3438 16.7979ZM60.3428 8.5752C63.3386 8.76461 65.6147 11.3468 65.4258 14.3428C65.3962 14.8101 65.3079 15.2618 65.1689 15.6885C65.0831 15.9504 64.8003 16.0941 64.5381 16.0088C64.2761 15.9232 64.133 15.641 64.2178 15.3789C64.3309 15.0316 64.4035 14.6629 64.4277 14.2803C64.582 11.8355 62.7249 9.72802 60.2803 9.57324C57.8352 9.41894 55.7275 11.2766 55.5732 13.7217C55.4195 16.1663 57.2769 18.2735 59.7217 18.4277C59.9474 18.4419 60.1706 18.4388 60.3887 18.4199C60.6634 18.3965 60.9057 18.6003 60.9297 18.875C60.9531 19.1498 60.7494 19.3921 60.4746 19.416C60.2069 19.4392 59.934 19.4432 59.6582 19.4258C56.6622 19.2367 54.3865 16.6542 54.5752 13.6582C54.7644 10.6621 57.3466 8.38623 60.3428 8.5752ZM60.2754 11.6113C60.4965 11.6162 60.723 11.643 60.9541 11.6914C61.2205 11.735 61.4653 11.8125 61.6865 11.9238L61.4072 12.4902C61.2413 12.4128 61.0547 12.3502 60.8486 12.3018C60.6677 12.2485 60.4764 12.2187 60.2754 12.2139V13.7402L60.5996 13.8633C60.6548 13.8874 60.7105 13.9124 60.7656 13.9365C60.8259 13.9607 60.8842 13.9846 60.9395 14.0088C61.05 14.0669 61.1554 14.1305 61.2559 14.1982C61.3563 14.2612 61.4424 14.3387 61.5127 14.4307C61.588 14.5226 61.6464 14.6321 61.6865 14.7578C61.7316 14.8836 61.7539 15.034 61.7539 15.208C61.7538 15.6387 61.5856 15.9658 61.249 16.1885C60.9926 16.3628 60.6676 16.472 60.2754 16.5156V17.1045H59.793V16.5303C59.5567 16.5206 59.3101 16.4918 59.0537 16.4434C58.7571 16.3853 58.4902 16.2949 58.2539 16.1738L58.5479 15.6006C58.7639 15.6973 58.9831 15.7719 59.2041 15.8252C59.38 15.8639 59.5768 15.8888 59.793 15.8984V14.3721C59.6774 14.3334 59.5664 14.2926 59.4609 14.249C59.3554 14.2006 59.2519 14.1519 59.1514 14.1035C59.0159 14.0407 58.8955 13.9749 58.79 13.9072C58.6896 13.8346 58.6008 13.7521 58.5254 13.6602C58.4551 13.5634 58.4024 13.4539 58.3672 13.333C58.3321 13.2121 58.3145 13.0667 58.3145 12.8975C58.3145 12.5923 58.4105 12.3352 58.6016 12.127C58.7926 11.914 59.054 11.7709 59.3857 11.6982C59.5013 11.6644 59.6372 11.6405 59.793 11.626V10.9795H60.2754V11.6113ZM60.2754 15.876C60.4564 15.8469 60.6051 15.7963 60.7207 15.7236C60.8916 15.6026 60.9774 15.4446 60.9775 15.251C60.9775 15.106 60.9339 14.9844 60.8486 14.8877C60.7683 14.7911 60.6701 14.7133 60.5547 14.6553C60.5146 14.636 60.469 14.617 60.4189 14.5977C60.3738 14.5783 60.3256 14.5584 60.2754 14.5391V15.876ZM59.793 12.2363C59.6121 12.2654 59.4689 12.3161 59.3633 12.3887C59.1923 12.4952 59.1064 12.6481 59.1064 12.8467C59.1065 13.0013 59.1491 13.1299 59.2344 13.2314C59.3248 13.3282 59.4432 13.4088 59.5889 13.4717C59.6391 13.5007 59.7076 13.5316 59.793 13.5654V12.2363Z" fill="black"/>
</svg>
