<svg width="80" height="27" viewBox="0 0 80 27" fill="none" xmlns="http://www.w3.org/2000/svg">
<rect x="0.5" y="0.5" width="79" height="26" rx="3.5" fill="white"/>
<rect x="0.5" y="0.5" width="79" height="26" rx="3.5" stroke="#E1E3E1"/>
<path d="M21.9814 8.25586V11.0596H23.335V12.0479H21.9814V15.3994H20.7891V8.25586H21.9814ZM22.3682 16.7959V17.7627H15.7617V14.6797H16.9541V16.7959H22.3682ZM15.8369 8.94336V10.4258H18.1035V8.94336H19.2852V13.8203H14.6553V8.94336H15.8369ZM15.8369 12.875H18.1035V11.3496H15.8369V12.875ZM32.4607 12.8428V13.7988H28.615V14.7334H31.3864V17.8379H24.6511V14.7334H27.4333V13.7988H23.6091V12.8428H32.4607ZM31.6443 8.53516V9.49121H30.3122V11.1562H31.5905V12.123H24.4577V11.1562H25.7361V9.49121H24.404V8.53516H31.6443ZM25.8327 15.6572V16.8711H30.2263V15.6572H25.8327ZM26.9284 11.1562H29.1091V9.49121H26.9284V11.1562ZM40.9848 8.25586V15.3457H39.7817V8.25586H40.9848ZM41.2534 16.7959V17.7627H34.561V14.6689H35.7641V16.7959H41.2534ZM36.5161 9.73828C36.5161 11.0918 37.311 12.3701 38.8471 12.8857L38.2348 13.8311C37.1284 13.4443 36.3388 12.6709 35.9145 11.6826C35.4741 12.7407 34.6738 13.5894 33.5297 14.0029L32.9067 13.0576C34.4858 12.499 35.2807 11.1348 35.2807 9.73828V8.79297H36.5161V9.73828ZM45.674 10.3184C45.674 11.3818 46.5011 12.4346 48.0265 12.8428L47.4679 13.7666C46.3454 13.4604 45.5397 12.8052 45.0939 11.9619C44.675 12.918 43.8639 13.6699 42.7091 14.0137L42.1505 13.0898C43.6652 12.6279 44.4816 11.4893 44.4816 10.3184V10.2646H42.4513V9.31934H44.4816V8.20215H45.6847V9.31934H47.7043V10.2646H45.674V10.3184ZM50.3146 8.24512V14.1211H49.1222V11.876H47.4142V10.9092H49.1222V8.24512H50.3146ZM47.0275 14.3145C49.0793 14.3145 50.3468 14.9697 50.3468 16.1191C50.3468 17.2793 49.0793 17.9453 47.0275 17.9453C44.9865 17.9453 43.7189 17.2793 43.7296 16.1191C43.7189 14.9697 44.9865 14.3145 47.0275 14.3145ZM47.0275 15.2275C45.674 15.2383 44.9113 15.5391 44.9113 16.1191C44.9113 16.6992 45.674 17.0215 47.0275 17.0215C48.4025 17.0215 49.1545 16.6992 49.1545 16.1191C49.1545 15.5391 48.4025 15.2383 47.0275 15.2275Z" fill="#191D1C"/>
<path d="M62.9209 14.8262C63.077 14.6705 63.3302 14.6704 63.4863 14.8262C63.642 14.9823 63.6421 15.2365 63.4863 15.3926L63.3574 15.5215H64.8564L65.0244 15.5303C65.8548 15.6151 66.5037 16.3162 66.5039 17.1689C66.5038 18.0218 65.8549 18.7238 65.0244 18.8086L64.8564 18.8174H62.7852C62.5644 18.8172 62.3857 18.6378 62.3857 18.417C62.3859 18.1964 62.5645 18.0177 62.7852 18.0176H64.8564C65.324 18.0168 65.704 17.6367 65.7041 17.1689C65.7039 16.7013 65.3239 16.322 64.8564 16.3213H63.333L63.4863 16.4746C63.642 16.6308 63.6421 16.884 63.4863 17.04C63.3302 17.1957 63.077 17.1957 62.9209 17.04L62.0967 16.2158C61.9409 16.0597 61.9409 15.8065 62.0967 15.6504L62.9209 14.8262ZM63.959 8C64.7873 8 65.4589 8.67168 65.459 9.5V14.0723H64.459V9.5C64.4589 9.22396 64.2351 9 63.959 9H61.7842V11.9385C61.784 12.2145 61.5602 12.4384 61.2842 12.4385H58.6758C58.3999 12.4383 58.1759 12.2144 58.1758 11.9385V9H56C55.7241 9.0002 55.5001 9.22408 55.5 9.5V16.2734C55.5 16.5494 55.724 16.7732 56 16.7734H61.1885V17.7734H56C55.1718 17.7732 54.5 17.1017 54.5 16.2734V9.5C54.5001 8.6718 55.1718 8.0002 56 8H63.959ZM59.1758 11.4385H60.7842V9H59.1758V11.4385Z" fill="black"/>
</svg>
