<svg width="80" height="28" viewBox="0 0 80 28" fill="none" xmlns="http://www.w3.org/2000/svg">
<rect x="0.5" y="0.5" width="79" height="27" rx="3.5" fill="white"/>
<rect x="0.5" y="0.5" width="79" height="27" rx="3.5" stroke="#E1E3E1"/>
<path d="M18.6846 14.3955V15.3408H14.8174V18.4561H13.6357V15.3408H9.81152V14.3955H18.6846ZM12.0674 9.13184V10.3242H16.4072V9.13184H17.6104V13.3857H10.8857V9.13184H12.0674ZM12.0674 12.4189H16.4072V11.2695H12.0674V12.4189ZM27.9714 13.7725V14.7285H24.2224V16.4043H23.0407V14.7285H19.0984V13.7725H27.9714ZM26.9939 17.2959V18.2627H20.1726V15.5879H21.3542V17.2959H26.9939ZM21.4402 9.05664V10.1523H25.6296V9.05664H26.8112V13.0098H20.2585V9.05664H21.4402ZM21.4402 12.0645H25.6296V11.0439H21.4402V12.0645ZM29.8246 9.63672V11.8818H31.4037V9.63672H32.5102V16.1035H28.6967V9.63672H29.8246ZM29.8246 15.1367H31.4037V12.8271H29.8246V15.1367ZM36.7748 8.74512V18.4561H35.6254V13.4824H34.5942V17.9834H33.4662V8.91699H34.5942V12.4941H35.6254V8.74512H36.7748ZM42.6886 12.1719V13.4395H46.5343V14.3955H37.6828V13.4395H41.507V12.1719H42.6886ZM42.6994 9.27148C42.6994 10.4531 43.9992 11.5273 46.0295 11.7852L45.5675 12.7197C43.9723 12.4727 42.7047 11.7529 42.0871 10.7324C41.464 11.7529 40.1964 12.4727 38.5959 12.7197L38.1662 11.7852C40.1642 11.5273 41.4855 10.4316 41.4855 9.27148V8.90625H42.6994V9.27148ZM42.0978 15.0293C44.2033 15.0293 45.4494 15.6416 45.4601 16.7373C45.4494 17.833 44.2033 18.4453 42.0978 18.4453C39.9816 18.4453 38.714 17.833 38.714 16.7373C38.714 15.6416 39.9816 15.0293 42.0978 15.0293ZM42.0978 15.9424C40.6691 15.9424 39.9171 16.2002 39.9279 16.7373C39.9171 17.2744 40.6691 17.543 42.0978 17.543C43.4943 17.543 44.257 17.2744 44.2677 16.7373C44.257 16.2002 43.4943 15.9424 42.0978 15.9424ZM55.8212 13.2031V14.1699H51.9755V14.9756C53.7157 15.0938 54.7362 15.6953 54.747 16.7051C54.7362 17.8223 53.4794 18.4453 51.3846 18.4453C49.2684 18.4453 48.0009 17.8223 48.0009 16.7051C48.0009 15.6953 49.0321 15.0884 50.7938 14.9756V14.1699H46.9696V13.2031H55.8212ZM51.3846 15.8779C49.9667 15.8887 49.204 16.168 49.2147 16.7051C49.204 17.2422 49.9667 17.5322 51.3846 17.5322C52.7704 17.5322 53.5438 17.2422 53.5546 16.7051C53.5438 16.168 52.7704 15.8887 51.3846 15.8779ZM55.0262 9.1748V10.1309H52.2333C52.4213 10.9312 53.5814 11.6509 55.4022 11.8174L54.9833 12.7627C53.2216 12.5854 51.911 11.8818 51.3846 10.8936C50.8583 11.8765 49.5692 12.5854 47.8075 12.7627L47.3993 11.8174C49.1825 11.6509 50.3427 10.9204 50.5468 10.1309H47.7753V9.1748H55.0262Z" fill="#191D1C"/>
<path d="M64.7295 9.29688C65.5448 9.29688 66.2068 9.94748 66.2275 10.7578H67.6504C67.8419 10.7578 68.017 10.8678 68.1006 11.04L69.2783 13.4688L70.0596 13.7266C70.2646 13.7941 70.4032 13.9854 70.4033 14.2012V15.498C70.4032 16.0579 70.0954 16.5437 69.6406 16.8008C69.6622 16.9063 69.6748 17.0152 69.6748 17.127L69.666 17.2988C69.5775 18.1419 68.8429 18.7997 67.9502 18.7998L67.7734 18.791C66.904 18.7052 66.2256 17.9927 66.2256 17.127C66.2256 17.0835 66.2291 17.0406 66.2324 16.998H63.3457C63.3491 17.0406 63.3515 17.0836 63.3516 17.127L63.3428 17.2988C63.2543 18.1419 62.5196 18.7997 61.627 18.7998L61.4502 18.791C60.5809 18.7051 59.9023 17.9926 59.9023 17.127C59.9024 17.0789 59.9051 17.0314 59.9092 16.9844C59.17 16.8915 58.5978 16.2624 58.5977 15.498V10.7969C58.5977 9.96854 59.2693 9.29697 60.0977 9.29688H64.7295ZM67.9502 16.4551C67.5212 16.4551 67.226 16.7846 67.2256 17.127C67.2256 17.4695 67.5209 17.7998 67.9502 17.7998C68.3794 17.7997 68.6748 17.4695 68.6748 17.127C68.6744 16.7846 68.3791 16.4552 67.9502 16.4551ZM61.627 16.4551C61.1981 16.4552 60.9027 16.7847 60.9023 17.127C60.9023 17.4695 61.1978 17.7997 61.627 17.7998C62.0561 17.7997 62.3516 17.4695 62.3516 17.127C62.3512 16.7846 62.0559 16.4552 61.627 16.4551ZM60.0977 10.2969C59.8216 10.297 59.5977 10.5208 59.5977 10.7969V15.498C59.5978 15.774 59.8217 15.9979 60.0977 15.998H60.3584C60.6736 15.6654 61.1244 15.4551 61.627 15.4551L61.8027 15.4639C62.235 15.5064 62.6203 15.704 62.8984 15.998H66.6807C66.9959 15.6651 67.4474 15.4551 67.9502 15.4551L68.126 15.4639C68.5224 15.5028 68.8784 15.6731 69.1494 15.9277C69.3 15.842 69.4032 15.6837 69.4033 15.498V14.5625L68.7656 14.3525C68.7173 14.3366 68.6736 14.3112 68.6328 14.2822H65.7295C65.4535 14.2821 65.2295 14.0583 65.2295 13.7822V10.7969C65.2295 10.5208 65.0056 10.2969 64.7295 10.2969H60.0977ZM66.2295 13.2822H68.0771L67.3379 11.7578H66.2295V13.2822Z" fill="black"/>
</svg>
