<svg width="80" height="27" viewBox="0 0 80 27" fill="none" xmlns="http://www.w3.org/2000/svg">
<rect x="0.5" y="0.5" width="79" height="26" rx="3.5" fill="white"/>
<rect x="0.5" y="0.5" width="79" height="26" rx="3.5" stroke="#E1E3E1"/>
<path d="M23.0889 8.83594V9.70605C23.0889 10.6138 23.0889 11.6074 22.8311 12.9824H24.1738V13.9492H20.3174V17.9668H19.1143V13.9492H15.3223V12.9824H21.6172C21.8857 11.6611 21.8965 10.6729 21.8965 9.80273H16.3643V8.83594H23.0889ZM32.988 8.24512V17.9561H31.8386V12.9824H30.8073V17.4834H29.6794V8.41699H30.8073V11.9941H31.8386V8.24512H32.988ZM28.7234 9.29785V15.4531H24.9099V9.29785H28.7234ZM26.0271 10.2432V14.5078H27.6062V10.2432H26.0271ZM41.5873 8.25586V11.0811H42.8979V12.0693H41.5873V14.8193H40.395V8.25586H41.5873ZM33.81 13.6592C34.5405 13.6592 35.3837 13.6538 36.2592 13.627V13.0361C35.1796 12.9019 34.4975 12.3809 34.4975 11.6182C34.4975 10.7266 35.4321 10.168 36.8393 10.1787C38.2573 10.168 39.1811 10.7266 39.1811 11.6182C39.1811 12.3755 38.5151 12.8911 37.4516 13.0254V13.584C38.2787 13.5464 39.1113 13.4819 39.8901 13.3799L39.9868 14.207C37.9135 14.5723 35.6469 14.5938 33.9389 14.5938L33.81 13.6592ZM41.5873 15.2383V17.9561H40.395V16.1729H35.0346V15.2383H41.5873ZM39.6323 9.01855V9.89941H34.0571V9.01855H36.2592V8.16992H37.4516V9.01855H39.6323ZM36.8393 10.9844C36.0873 10.9736 35.6362 11.1992 35.6469 11.6182C35.6362 12.0156 36.0873 12.2734 36.8393 12.2627C37.5912 12.2734 38.0424 12.0156 38.0424 11.6182C38.0424 11.1992 37.5912 10.9736 36.8393 10.9844ZM51.3146 8.24512V14.0137H50.1222V11.6396H48.4679V10.6621H50.1222V8.24512H51.3146ZM48.0275 14.2607C50.09 14.2607 51.3468 14.9375 51.3468 16.1084C51.3468 17.2793 50.09 17.9561 48.0275 17.9561C45.9757 17.9561 44.7189 17.2793 44.7296 16.1084C44.7189 14.9375 45.9757 14.2607 48.0275 14.2607ZM48.0275 15.1738C46.674 15.1738 45.9113 15.4961 45.9113 16.1084C45.9113 16.71 46.674 17.0322 48.0275 17.0322C49.381 17.0322 50.1545 16.71 50.1545 16.1084C50.1545 15.4961 49.381 15.1738 48.0275 15.1738ZM46.7492 9.91016C46.7492 11.0918 47.5334 12.2842 49.0373 12.7891L48.4357 13.7344C47.3561 13.3691 46.588 12.6279 46.1691 11.7148C45.7394 12.7515 44.9284 13.5786 43.7736 13.9922L43.1505 13.0469C44.7082 12.5098 45.5353 11.1992 45.5353 9.9209V9.8457H43.5158V8.87891H48.758V9.8457H46.7492V9.91016Z" fill="black"/>
<path d="M56 13.5L58.3333 16L63 11" stroke="black" stroke-width="1.2" stroke-linecap="round" stroke-linejoin="round"/>
</svg>
