<svg width="80" height="27" viewBox="0 0 80 27" fill="none" xmlns="http://www.w3.org/2000/svg">
<rect x="0.5" y="0.5" width="79" height="26" rx="3.5" fill="white"/>
<rect x="0.5" y="0.5" width="79" height="26" rx="3.5" stroke="#E1E3E1"/>
<path d="M19.6846 13.8955V14.8408H15.8174V17.9561H14.6357V14.8408H10.8115V13.8955H19.6846ZM13.0674 8.63184V9.82422H17.4072V8.63184H18.6104V12.8857H11.8857V8.63184H13.0674ZM13.0674 11.9189H17.4072V10.7695H13.0674V11.9189ZM28.9714 13.2725V14.2285H25.2224V15.9043H24.0407V14.2285H20.0984V13.2725H28.9714ZM27.9939 16.7959V17.7627H21.1726V15.0879H22.3542V16.7959H27.9939ZM22.4402 8.55664V9.65234H26.6296V8.55664H27.8112V12.5098H21.2585V8.55664H22.4402ZM22.4402 11.5645H26.6296V10.5439H22.4402V11.5645ZM37.4526 8.68555V9.6416H34.6381C34.7455 10.5547 35.9326 11.4248 37.8071 11.6504L37.3559 12.5957C35.6157 12.3862 34.332 11.6182 33.811 10.5654C33.29 11.6128 32.017 12.3862 30.2768 12.5957L29.8364 11.6504C31.7109 11.4248 32.8818 10.5547 32.9946 9.6416H30.2016V8.68555H37.4526ZM38.2582 13.1328V14.0996H34.5092V15.8721H33.3276V14.0996H29.3852V13.1328H38.2582ZM37.2807 16.7959V17.7627H30.4594V14.9805H31.6518V16.7959H37.2807ZM46.7609 8.24512V17.9668H45.5578V8.24512H46.7609ZM40.3908 9.04004V11.4678H42.7433V9.04004H43.925V15.6787H39.1984V9.04004H40.3908ZM40.3908 14.7012H42.7433V12.4023H40.3908V14.7012ZM56.8212 12.7031V13.6699H52.9755V14.4756C54.7157 14.5938 55.7362 15.1953 55.747 16.2051C55.7362 17.3223 54.4794 17.9453 52.3846 17.9453C50.2684 17.9453 49.0009 17.3223 49.0009 16.2051C49.0009 15.1953 50.0321 14.5884 51.7938 14.4756V13.6699H47.9696V12.7031H56.8212ZM52.3846 15.3779C50.9667 15.3887 50.204 15.668 50.2147 16.2051C50.204 16.7422 50.9667 17.0322 52.3846 17.0322C53.7704 17.0322 54.5438 16.7422 54.5546 16.2051C54.5438 15.668 53.7704 15.3887 52.3846 15.3779ZM56.0262 8.6748V9.63086H53.2333C53.4213 10.4312 54.5814 11.1509 56.4022 11.3174L55.9833 12.2627C54.2216 12.0854 52.911 11.3818 52.3846 10.3936C51.8583 11.3765 50.5692 12.0854 48.8075 12.2627L48.3993 11.3174C50.1825 11.1509 51.3427 10.4204 51.5468 9.63086H48.7753V8.6748H56.0262Z" fill="#191D1C"/>
<g clip-path="url(#clip0_478_17749)">
<path d="M66.45 14.95L67.725 16.225M67.3 13.25H69M63.05 11.55L61.775 10.275M66.45 11.55L67.725 10.275M63.05 14.95L61.775 16.225M60.5 13.25H62.2M64.75 9V10.7M64.75 15.8V17.5" stroke="black" stroke-linecap="round" stroke-linejoin="round"/>
</g>
<defs>
<clipPath id="clip0_478_17749">
<rect width="10" height="10" fill="white" transform="translate(59.5 8.5)"/>
</clipPath>
</defs>
</svg>
