<svg width="80" height="28" viewBox="0 0 80 28" fill="none" xmlns="http://www.w3.org/2000/svg">
<rect x="0.5" y="0.5" width="79" height="27" rx="3.5" fill="white"/>
<rect x="0.5" y="0.5" width="79" height="27" rx="3.5" stroke="#E1E3E1"/>
<path d="M15.2471 9.58301V10.5605H11.5625V12.29H14.8604V13.2354H11.5625V15.2334C13.1523 15.228 14.3662 15.1743 15.7627 14.9434L15.8809 15.9102C14.3555 16.1465 12.9912 16.2002 11.1973 16.2002H10.3809V9.58301H15.2471ZM17.9326 8.74512V18.4561H16.7295V8.74512H17.9326ZM27.4558 8.75586V15.2764H26.3171V8.75586H27.4558ZM25.4792 8.91699V14.4062H24.3405V12.4512H22.7614C22.1867 13.5308 21.1985 14.4009 19.6677 15.0615L19.0984 14.2021C20.3445 13.6758 21.1609 13.0205 21.655 12.2363L19.3239 12.4941L19.1628 11.5166L22.0632 11.3662C22.1438 11.0815 22.2029 10.7861 22.2351 10.4746H19.5925V9.50781H23.406C23.406 10.2168 23.3254 10.8774 23.1482 11.4844H24.3405V8.91699H25.4792ZM24.695 14.9648C24.695 16.1143 25.9626 17.21 27.9284 17.4785L27.4665 18.4023C25.925 18.166 24.7219 17.4517 24.115 16.458C23.508 17.4517 22.2942 18.166 20.7634 18.4023L20.28 17.4785C22.2566 17.21 23.5134 16.1143 23.5241 14.9648V14.7178H24.695V14.9648ZM31.8657 11.0762C31.8549 12.8057 32.725 14.5674 34.2289 15.2871L33.4985 16.2432C32.4457 15.7114 31.6884 14.6855 31.2748 13.4502C30.8505 14.7715 30.0556 15.8672 28.9438 16.4258L28.2133 15.4697C29.7709 14.7285 30.6625 12.8701 30.6733 11.0762V9.5293H31.8657V11.0762ZM36.0014 8.74512V12.5479H37.4946V13.5684H36.0014V18.4561H34.809V8.74512H36.0014ZM46.5343 13.418V14.374H37.6828V13.418H39.7453V12.1826C39.0148 11.8765 38.5959 11.3877 38.5959 10.7539C38.5959 9.59375 39.9601 8.90625 42.0978 8.90625C44.2355 8.90625 45.589 9.59375 45.5998 10.7539C45.5944 11.3931 45.1754 11.8818 44.4396 12.1826V13.418H46.5343ZM42.0978 14.9648C44.1925 14.9541 45.4494 15.5771 45.4601 16.6943C45.4494 17.8223 44.1925 18.4346 42.0978 18.4346C39.9816 18.4346 38.714 17.8223 38.714 16.6943C38.714 15.5771 39.9816 14.9541 42.0978 14.9648ZM42.0978 15.8672C40.6798 15.8672 39.9171 16.1465 39.9279 16.6943C39.9171 17.2422 40.6798 17.5322 42.0978 17.5322C43.4836 17.5322 44.257 17.2422 44.2677 16.6943C44.257 16.1465 43.4836 15.8672 42.0978 15.8672ZM42.0978 9.83008C40.6584 9.83008 39.8312 10.1523 39.842 10.7539C39.8312 11.3447 40.6584 11.6562 42.0978 11.6562C43.5265 11.6562 44.3644 11.3447 44.3644 10.7539C44.3644 10.1523 43.5265 9.83008 42.0978 9.83008ZM40.9484 13.418H43.2472V12.4941C42.8981 12.5425 42.5114 12.5693 42.0978 12.5693C41.6842 12.5693 41.2975 12.5425 40.9484 12.4941V13.418ZM55.8212 13.2031V14.1699H51.9755V14.9756C53.7157 15.0938 54.7362 15.6953 54.747 16.7051C54.7362 17.8223 53.4794 18.4453 51.3846 18.4453C49.2684 18.4453 48.0009 17.8223 48.0009 16.7051C48.0009 15.6953 49.0321 15.0884 50.7938 14.9756V14.1699H46.9696V13.2031H55.8212ZM51.3846 15.8779C49.9667 15.8887 49.204 16.168 49.2147 16.7051C49.204 17.2422 49.9667 17.5322 51.3846 17.5322C52.7704 17.5322 53.5438 17.2422 53.5546 16.7051C53.5438 16.168 52.7704 15.8887 51.3846 15.8779ZM55.0262 9.1748V10.1309H52.2333C52.4213 10.9312 53.5814 11.6509 55.4022 11.8174L54.9833 12.7627C53.2216 12.5854 51.911 11.8818 51.3846 10.8936C50.8583 11.8765 49.5692 12.5854 47.8075 12.7627L47.3993 11.8174C49.1825 11.6509 50.3427 10.9204 50.5468 10.1309H47.7753V9.1748H55.0262Z" fill="#191D1C"/>
<path d="M69.5 17L69.5 11C69.5 10.7239 69.2761 10.5 69 10.5L59.5 10.5L60.5 11.75L59.5 12.75L60.5 14L59.5 15.25L60.5 16.25L59.5 17.5L69 17.5C69.2761 17.5 69.5 17.2761 69.5 17Z" stroke="black" stroke-linecap="round" stroke-linejoin="round"/>
<path d="M67.5 12.5L67.5 15.5" stroke="black" stroke-linecap="round" stroke-linejoin="round"/>
<path d="M65.5 12.5L65.5 15.5" stroke="black" stroke-linecap="round" stroke-linejoin="round"/>
<path d="M63.5 12.5L63.5 13" stroke="black" stroke-linecap="round" stroke-linejoin="round"/>
</svg>
