<svg width="80" height="28" viewBox="0 0 80 28" fill="none" xmlns="http://www.w3.org/2000/svg">
<rect x="0.5" y="0.5" width="79" height="27" rx="3.5" fill="white"/>
<rect x="0.5" y="0.5" width="79" height="27" rx="3.5" stroke="#E1E3E1"/>
<path d="M22.2822 9.63672V10.625C22.2822 11.8281 22.2822 13.1387 21.9277 15.04L20.7568 14.9219C21.0898 13.1279 21.0898 11.7959 21.0898 10.625V10.5928H15.2139V9.63672H22.2822ZM23.1738 16.2217V17.1992H14.3223V16.2217H16.3096V13.1279H17.502V16.2217H18.7373V13.1279H19.9082V16.2217H23.1738ZM31.3005 8.74512V12H32.6111V12.9883H31.3005V16.3291H30.1081V8.74512H31.3005ZM31.6443 17.2959V18.2627H24.9196V15.8242H26.112V17.2959H31.6443ZM23.5232 14.3848C24.2483 14.3848 25.0915 14.3794 25.9724 14.3418V13.7295C24.8928 13.6006 24.2107 13.0688 24.2107 12.29C24.2107 11.334 25.1452 10.7754 26.5525 10.7861C27.9704 10.7754 28.8943 11.334 28.8943 12.29C28.8943 13.0635 28.2282 13.5898 27.1648 13.7295V14.2881C27.9919 14.2451 28.8244 14.1699 29.6032 14.0518L29.6999 14.8896C27.6482 15.2764 25.3279 15.2979 23.6521 15.3193L23.5232 14.3848ZM29.3454 9.59375V10.4639H23.7702V9.59375H25.9724V8.71289H27.1648V9.59375H29.3454ZM26.5525 11.5918C25.8005 11.5918 25.3493 11.8389 25.3601 12.29C25.3493 12.709 25.8005 12.9561 26.5525 12.9561C27.3044 12.9561 27.7556 12.709 27.7556 12.29C27.7556 11.8389 27.3044 11.5918 26.5525 11.5918ZM40.9848 8.75586V15.8457H39.7817V8.75586H40.9848ZM41.2534 17.2959V18.2627H34.561V15.1689H35.7641V17.2959H41.2534ZM36.5161 10.2383C36.5161 11.5918 37.311 12.8701 38.8471 13.3857L38.2348 14.3311C37.1284 13.9443 36.3388 13.1709 35.9145 12.1826C35.4741 13.2407 34.6738 14.0894 33.5297 14.5029L32.9067 13.5576C34.4858 12.999 35.2807 11.6348 35.2807 10.2383V9.29297H36.5161V10.2383ZM45.674 10.8184C45.674 11.8818 46.5011 12.9346 48.0265 13.3428L47.4679 14.2666C46.3454 13.9604 45.5397 13.3052 45.0939 12.4619C44.675 13.418 43.8639 14.1699 42.7091 14.5137L42.1505 13.5898C43.6652 13.1279 44.4816 11.9893 44.4816 10.8184V10.7646H42.4513V9.81934H44.4816V8.70215H45.6847V9.81934H47.7043V10.7646H45.674V10.8184ZM50.3146 8.74512V14.6211H49.1222V12.376H47.4142V11.4092H49.1222V8.74512H50.3146ZM47.0275 14.8145C49.0793 14.8145 50.3468 15.4697 50.3468 16.6191C50.3468 17.7793 49.0793 18.4453 47.0275 18.4453C44.9865 18.4453 43.7189 17.7793 43.7296 16.6191C43.7189 15.4697 44.9865 14.8145 47.0275 14.8145ZM47.0275 15.7275C45.674 15.7383 44.9113 16.0391 44.9113 16.6191C44.9113 17.1992 45.674 17.5215 47.0275 17.5215C48.4025 17.5215 49.1545 17.1992 49.1545 16.6191C49.1545 16.0391 48.4025 15.7383 47.0275 15.7275Z" fill="#191D1C"/>
<path d="M64.4368 14.2227C64.603 14.1397 64.8017 14.1561 64.9524 14.2646C65.1031 14.3732 65.1815 14.5563 65.1555 14.7402C64.798 17.2639 62.6255 19.2 60.0002 19.2002C57.3748 19.2002 55.2016 17.264 54.844 14.7402C54.8053 14.4669 54.9955 14.2136 55.2688 14.1748C55.5421 14.1361 55.7954 14.3264 55.8342 14.5996C56.1225 16.6348 57.8773 18.2002 60.0002 18.2002C61.7557 18.2 63.2572 17.1289 63.8879 15.6074C63.6504 15.6986 63.3789 15.5995 63.2629 15.3672C63.1398 15.1201 63.2405 14.8196 63.4875 14.6963L64.4368 14.2227ZM60.0002 8.7998C62.6231 8.80004 64.7954 10.7344 65.1555 13.2578C65.1942 13.5309 65.0039 13.7843 64.7307 13.8232C64.4576 13.862 64.2044 13.6715 64.1653 13.3984C63.8747 11.3632 62.1206 9.80004 60.0002 9.7998C58.2471 9.79982 56.744 10.8684 56.1116 12.3887C56.349 12.2979 56.6207 12.3987 56.7366 12.6309C56.8596 12.8779 56.759 13.1785 56.512 13.3018L55.5627 13.7754C55.3965 13.8583 55.1969 13.8421 55.0461 13.7334C54.8958 13.6247 54.818 13.4415 54.844 13.2578C55.2041 10.7343 57.3772 8.79983 60.0002 8.7998Z" fill="black"/>
</svg>
