<svg width="80" height="27" viewBox="0 0 80 27" fill="none" xmlns="http://www.w3.org/2000/svg">
<rect x="0.5" y="0.5" width="79" height="26" rx="3.5" fill="white"/>
<rect x="0.5" y="0.5" width="79" height="26" rx="3.5" stroke="#E1E3E1"/>
<path d="M21.9814 8.25586V11.0596H23.335V12.0479H21.9814V15.3994H20.7891V8.25586H21.9814ZM22.3682 16.7959V17.7627H15.7617V14.6797H16.9541V16.7959H22.3682ZM15.8369 8.94336V10.4258H18.1035V8.94336H19.2852V13.8203H14.6553V8.94336H15.8369ZM15.8369 12.875H18.1035V11.3496H15.8369V12.875ZM32.4607 12.8428V13.7988H28.615V14.7334H31.3864V17.8379H24.6511V14.7334H27.4333V13.7988H23.6091V12.8428H32.4607ZM31.6443 8.53516V9.49121H30.3122V11.1562H31.5905V12.123H24.4577V11.1562H25.7361V9.49121H24.404V8.53516H31.6443ZM25.8327 15.6572V16.8711H30.2263V15.6572H25.8327ZM26.9284 11.1562H29.1091V9.49121H26.9284V11.1562ZM35.8286 8.66406C37.2465 8.66406 38.2563 9.44824 38.267 10.6191C38.2563 11.5806 37.5312 12.3057 36.4516 12.5098V13.2939C37.2573 13.251 38.0683 13.1758 38.8256 13.0684L38.9223 13.9385C36.9028 14.3037 34.6469 14.3359 33.0034 14.3359L32.8745 13.3799C33.5727 13.3853 34.3891 13.3799 35.2485 13.3477V12.5098C34.1367 12.3271 33.3901 11.5967 33.4008 10.6191C33.3901 9.44824 34.3998 8.66406 35.8286 8.66406ZM35.8286 9.57715C35.0551 9.57715 34.5073 9.96387 34.518 10.6191C34.5073 11.2529 35.0551 11.6504 35.8286 11.6611C36.602 11.6504 37.1284 11.2529 37.1391 10.6191C37.1284 9.96387 36.602 9.57715 35.8286 9.57715ZM40.5873 8.25586V11.3926H41.8979V12.3809H40.5873V15.668H39.395V8.25586H40.5873ZM40.9311 16.7852V17.752H34.2065V15.0127H35.3989V16.7852H40.9311ZM51.0558 15.8398V16.8281H42.1828V15.8398H44.5353V14.2393H43.2355V11.0703H48.8214V9.87793H43.214V8.91113H50.0031V12.0264H44.4279V13.2725H50.2287V14.2393H48.8107V15.8398H51.0558ZM45.6955 15.8398H47.6398V14.2393H45.6955V15.8398Z" fill="#191D1C"/>
<path d="M62.9199 14.8262C63.076 14.6702 63.3292 14.6704 63.4854 14.8262C63.6415 14.9824 63.6415 15.2364 63.4854 15.3926L63.3564 15.5215H64.8555L65.0234 15.5303C65.8541 15.6147 66.5027 16.316 66.5029 17.1689C66.5028 18.022 65.8542 18.7241 65.0234 18.8086L64.8555 18.8174H62.7852C62.5646 18.8173 62.3851 18.6385 62.3848 18.418C62.3848 18.1972 62.5644 18.0177 62.7852 18.0176H64.8555C65.3233 18.0172 65.703 17.6369 65.7031 17.1689C65.7028 16.7012 65.3232 16.3217 64.8555 16.3213H63.332L63.4854 16.4746C63.6415 16.6308 63.6415 16.8838 63.4854 17.04C63.3291 17.1956 63.0759 17.196 62.9199 17.04L62.0957 16.2158C61.9401 16.0598 61.9402 15.8065 62.0957 15.6504L62.9199 14.8262ZM63.959 8C64.7873 8 65.4589 8.67168 65.459 9.5V14.0723H64.459V9.5C64.4589 9.22396 64.2351 9 63.959 9H61.7842V11.9385C61.784 12.2145 61.5602 12.4384 61.2842 12.4385H58.6758C58.3999 12.4383 58.1759 12.2144 58.1758 11.9385V9H56C55.7241 9.0002 55.5001 9.22408 55.5 9.5V16.2734C55.5 16.5494 55.724 16.7732 56 16.7734H61.1885V17.7734H56C55.1718 17.7732 54.5 17.1017 54.5 16.2734V9.5C54.5001 8.6718 55.1718 8.0002 56 8H63.959ZM59.1758 11.4385H60.7842V9H59.1758V11.4385Z" fill="black"/>
</svg>
