<svg width="80" height="28" viewBox="0 0 80 28" fill="none" xmlns="http://www.w3.org/2000/svg">
<rect x="0.5" y="0.5" width="79" height="27" rx="3.5" fill="white"/>
<rect x="0.5" y="0.5" width="79" height="27" rx="3.5" stroke="#E1E3E1"/>
<path d="M22.4541 8.74512V13.665H21.2617V12.8164H18.9199V11.9033H21.2617V10.9473H19.0488C18.4365 12.4297 17.0186 13.3965 14.8701 13.8799L14.4512 12.9023C16.7339 12.4297 17.8726 11.4253 18.0391 10.1309H14.9883V9.16406H19.3711C19.3711 9.47021 19.3442 9.76025 19.3066 10.0342H21.2617V8.74512H22.4541ZM22.4541 14.041V16.5977H17.2656V17.4033H22.7119V18.3594H16.0732V15.7061H21.2617V14.9863H16.0625V14.041H22.4541ZM31.9665 8.74512V18.4561H30.8279V8.74512H31.9665ZM29.99 8.92773V17.9834H28.862V13.0957H27.4655V12.1289H28.862V8.92773H29.99ZM26.6062 11.3984C26.6062 13.042 27.197 14.6855 28.5827 15.4805L27.8737 16.3613C26.9768 15.8242 26.3806 14.9004 26.0476 13.7939C25.7038 14.9917 25.0862 16.0122 24.1677 16.5869L23.4372 15.6953C24.8445 14.8467 25.4568 13.085 25.4568 11.3984V10.7539H23.7702V9.78711H28.1745V10.7539H26.6062V11.3984ZM40.9633 8.74512V13.6973H39.7817V8.74512H40.9633ZM40.9848 14.1484V16.6729H35.7319V17.4248H41.2748V18.3701H34.561V15.7812H39.7924V15.0723H34.5395V14.1484H40.9848ZM36.5161 9.7334C36.5161 10.9688 37.3325 12.1289 38.8686 12.5908L38.2885 13.5146C37.1606 13.1709 36.3549 12.4458 35.9145 11.5166C35.4741 12.5264 34.6469 13.3159 33.4868 13.6865L32.8852 12.752C34.4536 12.2471 35.2807 11.001 35.2807 9.7334V8.98145H36.5161V9.7334ZM50.5617 8.74512V18.4561H49.4123V13.5254H48.4455V17.9619H47.3175V8.92773H48.4455V12.5479H49.4123V8.74512H50.5617ZM46.7589 9.89453V10.8613H46.0607V15.04C46.3507 15.0186 46.6247 14.9917 46.8879 14.9541L46.9523 15.8242C45.4377 16.1357 43.4396 16.168 42.215 16.168L42.0754 15.1797L42.9777 15.1689V10.8613H42.2687V9.89453H46.7589ZM44.0519 15.1475L44.9757 15.1152V10.8613H44.0519V15.1475Z" fill="#E32727"/>
<path d="M60 12V14" stroke="#E32727" stroke-linecap="round" stroke-linejoin="round"/>
<path d="M60 16.0108V16" stroke="#E32727" stroke-linecap="round" stroke-linejoin="round"/>
<path d="M60 19C62.7614 19 65 16.7614 65 14C65 11.2386 62.7614 9 60 9C57.2386 9 55 11.2386 55 14C55 16.7614 57.2386 19 60 19Z" stroke="#E32727" stroke-linecap="round" stroke-linejoin="round"/>
</svg>
