<svg width="80" height="28" viewBox="0 0 80 28" fill="none" xmlns="http://www.w3.org/2000/svg">
<rect x="0.5" y="0.5" width="79" height="27" rx="3.5" fill="white"/>
<rect x="0.5" y="0.5" width="79" height="27" rx="3.5" stroke="#E1E3E1"/>
<path d="M14.1846 14.3955V15.3408H10.3174V18.4561H9.13574V15.3408H5.31152V14.3955H14.1846ZM7.56738 9.13184V10.3242H11.9072V9.13184H13.1104V13.3857H6.38574V9.13184H7.56738ZM7.56738 12.4189H11.9072V11.2695H7.56738V12.4189ZM23.4714 13.7725V14.7285H19.7224V16.4043H18.5407V14.7285H14.5984V13.7725H23.4714ZM22.4939 17.2959V18.2627H15.6726V15.5879H16.8542V17.2959H22.4939ZM16.9402 9.05664V10.1523H21.1296V9.05664H22.3112V13.0098H15.7585V9.05664H16.9402ZM16.9402 12.0645H21.1296V11.0439H16.9402V12.0645ZM25.3246 9.63672V11.8818H26.9037V9.63672H28.0102V16.1035H24.1967V9.63672H25.3246ZM25.3246 15.1367H26.9037V12.8271H25.3246V15.1367ZM32.2748 8.74512V18.4561H31.1254V13.4824H30.0942V17.9834H28.9662V8.91699H30.0942V12.4941H31.1254V8.74512H32.2748ZM38.1886 12.1719V13.4395H42.0343V14.3955H33.1828V13.4395H37.007V12.1719H38.1886ZM38.1994 9.27148C38.1994 10.4531 39.4992 11.5273 41.5295 11.7852L41.0675 12.7197C39.4723 12.4727 38.2047 11.7529 37.5871 10.7324C36.964 11.7529 35.6964 12.4727 34.0959 12.7197L33.6662 11.7852C35.6642 11.5273 36.9855 10.4316 36.9855 9.27148V8.90625H38.1994V9.27148ZM37.5978 15.0293C39.7033 15.0293 40.9494 15.6416 40.9601 16.7373C40.9494 17.833 39.7033 18.4453 37.5978 18.4453C35.4816 18.4453 34.214 17.833 34.214 16.7373C34.214 15.6416 35.4816 15.0293 37.5978 15.0293ZM37.5978 15.9424C36.1691 15.9424 35.4171 16.2002 35.4279 16.7373C35.4171 17.2744 36.1691 17.543 37.5978 17.543C38.9943 17.543 39.757 17.2744 39.7677 16.7373C39.757 16.2002 38.9943 15.9424 37.5978 15.9424ZM45.4022 9.16406C46.8202 9.16406 47.83 9.94824 47.8407 11.1191C47.83 12.0806 47.1049 12.8057 46.0253 13.0098V13.7939C46.8309 13.751 47.642 13.6758 48.3993 13.5684L48.496 14.4385C46.4764 14.8037 44.2206 14.8359 42.577 14.8359L42.4481 13.8799C43.1464 13.8853 43.9628 13.8799 44.8221 13.8477V13.0098C43.7103 12.8271 42.9637 12.0967 42.9745 11.1191C42.9637 9.94824 43.9735 9.16406 45.4022 9.16406ZM45.4022 10.0771C44.6288 10.0771 44.0809 10.4639 44.0917 11.1191C44.0809 11.7529 44.6288 12.1504 45.4022 12.1611C46.1757 12.1504 46.702 11.7529 46.7128 11.1191C46.702 10.4639 46.1757 10.0771 45.4022 10.0771ZM50.161 8.75586V11.8926H51.4716V12.8809H50.161V16.168H48.9686V8.75586H50.161ZM50.5048 17.2852V18.252H43.7802V15.5127H44.9725V17.2852H50.5048ZM60.6295 16.3398V17.3281H51.7564V16.3398H54.109V14.7393H52.8092V11.5703H58.3951V10.3779H52.7877V9.41113H59.5768V12.5264H54.0016V13.7725H59.8023V14.7393H58.3844V16.3398H60.6295ZM55.2691 16.3398H57.2135V14.7393H55.2691V16.3398Z" fill="black"/>
<path d="M74.1401 16.0107C74.3374 15.818 74.6541 15.8215 74.8472 16.0186C75.0399 16.2158 75.0362 16.5325 74.8394 16.7256L72.3198 19.1943C72.1256 19.3843 71.8149 19.3841 71.6206 19.1943L70.3608 17.96C70.1637 17.7668 70.1601 17.4502 70.353 17.2529C70.5462 17.056 70.8629 17.0522 71.0601 17.2451L71.9702 18.1367L74.1401 16.0107ZM72.4419 8.51953C73.2701 8.51978 73.9419 9.19125 73.9419 10.0195V14.6592C73.9417 14.935 73.7177 15.1589 73.4419 15.1592C73.1659 15.1592 72.9421 14.9352 72.9419 14.6592V10.0195C72.9419 9.74354 72.7178 9.51978 72.4419 9.51953H70.2212V12.5C70.2207 12.7757 69.997 13 69.7212 13H67.0815C66.8059 12.9998 66.582 12.7756 66.5815 12.5V9.51953H64.3618C64.0857 9.51953 63.8618 9.74339 63.8618 10.0195V16.8994C63.862 17.1754 64.0858 17.3994 64.3618 17.3994H69.0259C69.3018 17.3996 69.5258 17.6235 69.5259 17.8994C69.5257 18.1753 69.3017 18.3992 69.0259 18.3994H64.3618C63.5335 18.3994 62.862 17.7277 62.8618 16.8994V10.0195C62.8618 9.1911 63.5334 8.51953 64.3618 8.51953H72.4419ZM67.5815 12H69.2212V9.51953H67.5815V12Z" fill="black"/>
</svg>
