<svg width="20" height="20" viewBox="0 0 20 20" fill="none" xmlns="http://www.w3.org/2000/svg">
<path d="M14.9202 13.2684C15.1545 13.0341 15.5335 13.0341 15.7679 13.2684C16.0021 13.5028 16.0021 13.8818 15.7679 14.1161L14.6936 15.1893L15.7698 16.2655C16.0039 16.4998 16.0041 16.8799 15.7698 17.1141C15.5355 17.3484 15.1555 17.3474 14.9212 17.1132L13.846 16.038L12.7708 17.1132C12.5365 17.3474 12.1565 17.3484 11.9221 17.1141C11.6879 16.8799 11.688 16.4998 11.9221 16.2655L12.9973 15.1893L11.9241 14.1161C11.6898 13.8818 11.6899 13.5028 11.9241 13.2684C12.1584 13.0341 12.5374 13.0341 12.7718 13.2684L13.846 14.3417L14.9202 13.2684ZM17.052 4.20691C17.3831 4.20716 17.6515 4.47545 17.6516 4.80652C17.6516 5.13773 17.3832 5.40587 17.052 5.40613H15.8196V12.0516C15.8194 12.3828 15.5503 12.6512 15.219 12.6512C14.888 12.651 14.6196 12.3827 14.6194 12.0516V5.40613H5.38309L5.38113 15.9618H10.3538C10.6849 15.962 10.9534 16.2302 10.9534 16.5614C10.9533 16.8925 10.6849 17.1608 10.3538 17.161H4.78152C4.62246 17.161 4.47019 17.0977 4.3577 16.9852C4.24524 16.8728 4.18198 16.7204 4.18192 16.5614L4.18289 5.40613H2.94852C2.61725 5.40601 2.34891 5.13782 2.34891 4.80652C2.34907 4.47536 2.61735 4.20703 2.94852 4.20691H17.052ZM8.21805 6.72937C8.54942 6.72937 8.81766 6.99761 8.81766 7.32898V11.4716C8.81757 11.8029 8.54937 12.0712 8.21805 12.0712C7.88681 12.0711 7.61852 11.8028 7.61844 11.4716V7.32898C7.61844 6.99767 7.88676 6.72946 8.21805 6.72937ZM11.9993 6.72937C12.3307 6.72937 12.5989 6.99761 12.5989 7.32898V11.4716C12.5988 11.8029 12.3306 12.0712 11.9993 12.0712C11.6682 12.0709 11.3998 11.8027 11.3997 11.4716V7.32898C11.3997 6.99775 11.6681 6.7296 11.9993 6.72937ZM12.1155 2.71082C12.4469 2.71082 12.7161 2.97905 12.7161 3.31042C12.716 3.64172 12.4468 3.91003 12.1155 3.91003H7.88504C7.55386 3.90987 7.28552 3.64162 7.28543 3.31042C7.28543 2.97915 7.55381 2.71098 7.88504 2.71082H12.1155Z" fill="#5C5F5E"/>
</svg>
