<svg width="24" height="24" viewBox="0 0 24 24" fill="none" xmlns="http://www.w3.org/2000/svg">
<g clip-path="url(#clip0_275_1840)">
<line x1="15.15" y1="10.9" x2="15.15" y2="13.1" stroke="#5D00FF" stroke-width="1.8" stroke-linecap="round"/>
<line x1="15.15" y1="4.9" x2="15.15" y2="7.1" stroke="#5D00FF" stroke-width="1.8" stroke-linecap="round"/>
<line x1="15.15" y1="16.9" x2="15.15" y2="19.1" stroke="#5D00FF" stroke-width="1.8" stroke-linecap="round"/>
<path d="M18.75 3.99976C19.7263 3.99976 20.25 3.99994 20.25 3.99994C21.3546 3.99994 22.25 4.89537 22.25 5.99994V8.46686C22.25 8.89054 21.9728 9.25499 21.6174 9.48573C20.7946 10.02 20.25 10.9456 20.25 11.9999C20.25 13.0542 20.7947 13.9791 21.6175 14.5132C21.9728 14.7439 22.25 15.1083 22.25 15.532V17.9999C22.25 19.1045 21.3546 19.9999 20.25 19.9999H4.25C3.14543 19.9999 2.25 19.1045 2.25 17.9999V15.532C2.25 15.1083 2.52718 14.7439 2.88253 14.5132C3.70531 13.9791 4.25 13.0542 4.25 11.9999C4.25 10.9456 3.70542 10.02 2.88259 9.48573C2.52725 9.25499 2.25 8.89054 2.25 8.46686V5.99994C2.25 4.89537 3.14543 3.99994 4.25 3.99994H10.75" stroke="black" stroke-width="1.8" stroke-linecap="round"/>
<path d="M13.25 4H16.25" stroke="black" stroke-width="2" stroke-linecap="round"/>
</g>
<defs>
<clipPath id="clip0_275_1840">
<rect width="24" height="24" fill="white"/>
</clipPath>
</defs>
</svg>
