<svg width="80" height="80" viewBox="0 0 80 80" fill="none" xmlns="http://www.w3.org/2000/svg">
<path d="M70.7992 49.517C70.7992 52.168 68.6502 54.317 65.9992 54.317H49.9152C49.0316 54.317 48.3152 55.0334 48.3152 55.917V66.0636C48.3152 67.4401 46.6923 68.1741 45.6586 67.2651L31.3884 54.7155C31.0963 54.4587 30.7207 54.317 30.3318 54.317H13.9992C11.3482 54.317 9.19922 52.168 9.19922 49.517V15.2014C9.19922 12.5504 11.3483 10.4014 13.9992 10.4014H65.9992C68.6502 10.4014 70.7992 12.5504 70.7992 15.2014V49.517Z" fill="white"/>
<path d="M45.1992 10.4027H13.9992C11.3483 10.4027 9.19922 12.5517 9.19922 15.2027V49.5183C9.19922 52.1693 11.3482 54.3183 13.9992 54.3183H30.3318C30.7207 54.3183 31.0963 54.46 31.3884 54.7168L45.6586 67.2664C46.6923 68.1754 48.3152 67.4414 48.3152 66.0649V55.9183C48.3152 55.0347 49.0316 54.3183 49.9152 54.3183H65.9992C68.6502 54.3183 70.7992 52.1693 70.7992 49.5183V15.202C70.7992 12.5513 68.6506 10.4024 65.9999 10.402L61.1992 10.4014" stroke="black" stroke-width="3.2" stroke-linecap="round"/>
<path d="M37.1403 36.875V36.4091C37.1403 35.1212 37.2463 34.0947 37.4585 33.3295C37.6781 32.5644 37.9963 31.9508 38.413 31.4886C38.8297 31.0189 39.3372 30.5909 39.9357 30.2045C40.413 29.9015 40.8372 29.5947 41.2085 29.2841C41.5872 28.9659 41.8865 28.625 42.1062 28.2614C42.3259 27.8977 42.4357 27.4848 42.4357 27.0227C42.4357 26.5758 42.3297 26.1818 42.1175 25.8409C41.9054 25.5 41.6138 25.2386 41.2425 25.0568C40.8789 24.8674 40.4736 24.7727 40.0266 24.7727C39.5797 24.7727 39.1592 24.875 38.7653 25.0795C38.3789 25.2841 38.0607 25.5758 37.8107 25.9545C37.5683 26.3258 37.4433 26.7765 37.4357 27.3068H32.2085C32.2312 25.7159 32.5986 24.4129 33.3107 23.3977C34.0304 22.3826 34.9812 21.6326 36.163 21.1477C37.3448 20.6553 38.6478 20.4091 40.0721 20.4091C41.6327 20.4091 43.0191 20.6515 44.2312 21.1364C45.4509 21.6212 46.4092 22.3371 47.1062 23.2841C47.8031 24.2311 48.1516 25.3902 48.1516 26.7614C48.1516 27.6629 48.0001 28.4583 47.6971 29.1477C47.3941 29.8371 46.9698 30.447 46.4244 30.9773C45.8865 31.5 45.2539 31.9773 44.5266 32.4091C43.9585 32.7424 43.485 33.0909 43.1062 33.4545C42.735 33.8182 42.4547 34.2348 42.2653 34.7045C42.0759 35.1667 41.9812 35.7348 41.9812 36.4091V36.875H37.1403ZM39.6516 44.3295C38.8335 44.3295 38.1327 44.0417 37.5494 43.4659C36.9736 42.8902 36.6895 42.1932 36.6971 41.375C36.6895 40.572 36.9736 39.8864 37.5494 39.3182C38.1327 38.7424 38.8335 38.4545 39.6516 38.4545C40.4319 38.4545 41.1175 38.7424 41.7085 39.3182C42.2994 39.8864 42.5986 40.572 42.6062 41.375C42.5986 41.9205 42.4547 42.4167 42.1744 42.8636C41.9016 43.3106 41.5418 43.6667 41.0948 43.9318C40.6554 44.197 40.1744 44.3295 39.6516 44.3295Z" fill="#5700ED"/>
<path d="M54.7996 10.3999H51.5996" stroke="black" stroke-width="3.2" stroke-linecap="round"/>
</svg>
