<svg width="20" height="20" viewBox="0 0 20 20" fill="none" xmlns="http://www.w3.org/2000/svg">
<path d="M11.25 5.5C11.25 4.80964 10.6904 4.25 10 4.25C9.30964 4.25 8.75 4.80964 8.75 5.5C8.75 6.19036 9.30964 6.75 10 6.75C10.6904 6.75 11.25 6.19036 11.25 5.5Z" fill="#5C5F5E"/>
<path d="M11.25 10C11.25 9.30964 10.6904 8.75 10 8.75C9.30964 8.75 8.75 9.30964 8.75 10C8.75 10.6904 9.30964 11.25 10 11.25C10.6904 11.25 11.25 10.6904 11.25 10Z" fill="#5C5F5E"/>
<path d="M11.25 14.5C11.25 13.8096 10.6904 13.25 10 13.25C9.30964 13.25 8.75 13.8096 8.75 14.5C8.75 15.1904 9.30964 15.75 10 15.75C10.6904 15.75 11.25 15.1904 11.25 14.5Z" fill="#5C5F5E"/>
</svg>
