<svg width="24" height="24" viewBox="0 0 24 24" fill="none" xmlns="http://www.w3.org/2000/svg">
<g clip-path="url(#clip0_275_1854)">
<line x1="15.9" y1="7.1" x2="18.1" y2="7.1" stroke="#5D00FF" stroke-width="1.8" stroke-linecap="round"/>
<line x1="15.9" y1="10.1" x2="18.1" y2="10.1" stroke="#5D00FF" stroke-width="1.8" stroke-linecap="round"/>
<line x1="8.9" y1="14.1" x2="18.1" y2="14.1" stroke="#5D00FF" stroke-width="1.8" stroke-linecap="round"/>
<path d="M21 7.5V4.2C21 3.53726 20.4627 3 19.8 3H7.2C6.53726 3 6 3.53726 6 4.2V16.8C6 17.4627 6.53726 18 7.2 18H19.8C20.4627 18 21 17.4627 21 16.8V13.5" stroke="black" stroke-width="1.8" stroke-linecap="round"/>
<path d="M3 8V18C3 19.6569 4.34315 21 6 21H18" stroke="black" stroke-width="1.8" stroke-linecap="round"/>
<rect x="9" y="6" width="4" height="5" rx="0.2" stroke="#5D00FF" stroke-width="1.8"/>
<line x1="21.0001" y1="9.9" x2="21.0001" y2="11.1" stroke="black" stroke-width="1.8" stroke-linecap="round"/>
</g>
<defs>
<clipPath id="clip0_275_1854">
<rect width="24" height="24" fill="white"/>
</clipPath>
</defs>
</svg>
