<svg width="18" height="18" viewBox="0 0 18 18" fill="none" xmlns="http://www.w3.org/2000/svg">
<path d="M15.0496 1.9223C15.9331 1.92251 16.6502 2.63839 16.6502 3.52191V12.7719C16.6501 13.6554 15.933 14.3713 15.0496 14.3715H9.46953L5.72929 16.7563C5.54468 16.874 5.30999 16.8819 5.11797 16.7768C4.92601 16.6715 4.8065 16.4694 4.80644 16.2504V14.3715H2.95097C2.06737 14.3715 1.35145 13.6555 1.35136 12.7719V3.52191C1.35136 2.63826 2.06732 1.9223 2.95097 1.9223H15.0496ZM2.95097 3.12152C2.73006 3.12152 2.55058 3.301 2.55058 3.52191V12.7719C2.55067 12.9928 2.73011 13.1723 2.95097 13.1723H5.40703C5.73806 13.1727 6.00663 13.4408 6.00664 13.7719V15.1557L8.97148 13.2661L9.04668 13.225C9.12408 13.19 9.20912 13.1723 9.29472 13.1723H15.0496C15.2703 13.1721 15.4499 12.9926 15.45 12.7719V3.52191C15.45 3.30113 15.2703 3.12173 15.0496 3.12152H2.95097ZM9.44609 11.4467H8.54668V10.5463H9.44609V11.4467ZM9.59746 9.34613H8.39824V4.77191H9.59746V9.34613Z" fill="#DE1E7B"/>
</svg>
